<svg viewBox="0 0 2000 1200" fill="none" xmlns="http://www.w3.org/2000/svg">
  <path style="fill:#cccccc;fill-opacity:1;fill-rule:evenodd;stroke:none;" d="m 173.6,1157 h -1.5 -1.4 l 0.7,-4 h 3.6 z m -10.8,-4 -1.5,4 h -3.6 l 0.8,-4 h 1.4 z m 16.5,0 h -2.1 -0.7 1.4 2.1 z m 8.7,0 h -1.5 -2.1 -3.6 l 2.1,-4 h 4.3 1.5 z m -33.2,4 H 152 l -5.1,-4 h -5 -7.2 l -0.7,-4 h 7.9 2.9 3.6 v 0 l 2.8,4 h 4.4 z m 1501.2,-4 -5,4 1,-8 12,-8 3,4 3,4 h -8 z m -1537.1,-8 5,4 h 2.9 2.9 -0.8 l -2.8,4 h -7.2 l -4.4,-4 h -6.4 v -8 l 4.3,4 z m 114.4,-4 h 0.8 l -1.5,4 h -5.7 l -3.6,-4 -0.8,4 h -0.7 l -2.1,4 h -2.9 l -4.3,4 h -5.1 l -2.9,-4 -2.8,4 h -6.5 l -2.2,4 -2.9,-4 6.5,-4 5.8,-4 h 2.9 l 3.6,4 h 2.8 l 0.8,-4 v -4 h 2.1 2.2 1.4 3.6 1.5 l 0.7,-4 h 2.1 2.9 l 2.2,4 z m -149.01,0 h 0.72 -2.88 l -2.88,-4 1.44,-4 z m 7.2,-8 -0.72,4 -4.32,-4 h 2.16 2.16 z m -18.72,-4 h -3.6 l -1.44,-4 h 3.6 2.16 v 4 z m -28.12,-24 -1.44,4 -2.16,-4 5.04,-4 h 1.44 z m 721.45,8 v 8 h 3.6 l 1.6,4 6.4,4 -10,8 -6,4 -4.8,-4 -8,4 -7.2,16 -8.8,-12 -2,-20 -3.6,-8 8,-8 -2.8,-8 2,-4 28,12 z M 44.65,1097 h -4.32 l -5.02,-4 h 2.16 4.3 z m 300.25,4 -5,4 -2.9,4 -2.1,-4 h -1.5 v 4 l -2.9,4 v 0 l -2.8,4 -2.9,-4 2.1,-4 -2.8,-8 4.3,-4 3.6,4 4.3,-4 v -8 l 5,-4 h 5.1 v 4 h -5.8 v 4 l 2.2,4 z m 363.6,-16 h -10.8 l 8.8,-4 z m -13.6,-8 h -5.6 l -5.2,-8 h 4.4 7.2 z m 8.8,-16 5.6,8 h 9.2 l 10.4,4 v 4 l -3.6,4 -14,4 -2,-12 h -3.6 l -5.2,-4 v -4 z m 333.3,36 3,12 -4,-12 2,-16 v -4 l 3,-8 3,-4 3,-8 h 3 l -7,12 -5,12 z m -348.5,-44 1.2,4 h 9.6 l -6,4 h -19.2 l 3.6,-4 h 9.2 z m -445.8,4 h -5 l -7.2,-8 h 10 2.2 z m 419,-8 -0.8,4 h -7.2 -5.6 -7.2 l -5.2,-12 7.2,-4 4.4,-4 6,8 0.4,4 3.2,4 z m -464.4,-12 -3.6,4 -3.6,-4 1.5,-4 3.6,4 z m 367.2,-12 -4.8,4 h -3.2 l 0.8,-4 5.2,-4 h 2.8 z m 26.8,0 h -10 l -6.8,-4 0.8,-4 8,-4 h 7.2 l 5.2,4 z m 544.7,-28.3 -13,8.3 10,-8.3 z m -924.3,-8 5.1,4 h 5 l 1.4,4 7.2,4.3 -8.6,4 -3.6,-8.3 H 211 Z m 1039.3,-8 -5,3.6 -8,-3.6 6,-3.2 z m -931.3,-86.4 0.8,5.6 3.6,-4.4 4.3,5.2 6.5,-2.4 2.8,1.6 0.8,2.8 2.8,2.8 11.6,-2.8 9.3,4.4 10.1,-0.8 4.3,2.8 7.9,-4.8 14.4,5.6 27.6,135.1 8.4,4 4.4,-4 0.8,4 14.4,8 0.8,4 5.6,-4 1.6,-8 4.8,-4 h 4.4 l 1.6,4 v 4 l 14.4,8 15.6,16 6,4 10,4 h 9.2 l -0.8,4 4.4,8 -2.8,8 -4.4,-4 -4.4,4 -4.8,-8 h -2.8 l 1.2,4 4.4,8 -4.4,4 h -2 l -11.6,-8 v -8 l -3.6,-4 -0.8,8 h -4.4 v -8 l -2,-4 -0.8,4 h -4.8 l -16,-16 -2.8,-8 -28.8,-12 1.2,-4 h 0.8 -3.6 l -2,4 -9.6,-4 h -11.2 l -10.4,8 1.6,-8 h -13 l -5,-8 h -9.4 -5 l 1.4,4 5,4 -1.4,4 -3.6,4 h -6.5 l -8.6,8 -7.9,4 h -4.4 l 8,-8 h -5.1 -2.9 l 4.4,-8 v -8 l 6.4,-4 2.9,4 5.1,-4 -6.5,-4 h -4.3 l -6.5,8 -5.1,8 h -2.1 v 4 l -2.9,4 h -0.7 l -2.2,4 h -2.9 l -0.7,8 h 4.3 l -3.6,8 -2.8,4 -5.8,4 -2.2,4 h -2.8 l -2.9,4 h -2.9 l -1.4,4 -4.4,4 h -3.6 l -1.4,4 h -5 l -2.2,4 -3.6,4 -4.3,4 h -5.8 -3.6 -0.7 l -5,4 -2.2,-4 h -2.2 l -2.1,4 -2.9,4 h -4.3 -4.4 l -3.6,4 h -5.7 l -8.7,4 -0.7,-4 4.3,-8 h 10.8 5.1 l 9.3,-8 h 7.2 2.2 l 2.2,-4 5.7,-4 8.7,-4 h 2.8 l 2.9,-8 5.1,-4 h 0.7 l 2.2,-12 4.3,-8 -9.4,4 -2.9,-4 -2.8,8 -4.4,-8 h -3.6 l -2.8,-4 -5.1,4 h -3.6 l -2.9,4 -2.8,-4 h 2.1 l -0.7,-8 3.6,-4 -3.6,-8 -6.5,4 -6.5,-4 -6.5,-8 -1.4,-4 2.2,-4 h -1.5 l -2.1,-4 -0.8,-4 -2.1,-4 2.9,-4 2.1,-4 6.5,-4 2.9,-8 h 2.9 5 l 1.5,4 5.7,-4 7.2,-4 h 5.1 l -0.8,-8.3 -3.6,-4 5.1,-4 -0.8,-4 -4.3,0.8 -4.3,2.8 -3.6,4.4 -1.4,-4 -5.1,-0.4 h -7.9 l -7.9,-4 -1.5,-6.8 3.6,-3.6 -10,-5.6 18.7,-8.8 8.6,-1.2 v 6.4 l 11.5,4.4 3.6,-5.2 -1.4,-6.4 2.9,-2.8 -13.7,-3.6 -1.4,-8.8 -12.3,-12 2.9,-2.4 0.7,-5.6 h 13 l 11.5,-16.8 5.8,-0.4 10,-6.8 h 5.8 l 7.9,-7.2 z m -33.1,-155.6 6.5,10.8 -4.3,-2.4 z m -28.8,-52.8 v 4.4 l -5,-2 -0.7,-3.6 z m -9.3,2.8 -5.1,0.8 -2.9,-5.6 5.8,0.8 z m 1549.5,-27.2 1,2 h -3 l -4,3.2 2,-1.6 2,-2.8 z m -4,-233.2 -4,2.8 1,-2.8 v -1.6 -1.2 l 3,-1.6 z m 106,-62.8 -12,3.6 2,-0.8 4,-7.2 z m 15,0.8 -3,0.8 -4,-0.8 4,-1.6 1,-3.6 3,3.2 z m -451,-116 -9,3.6 -3,-1.2 6,-4.4 2,-2.4 z m -170,-64.8 -4,3.6 -4,-1.2 2,-3.2 8,-4 10,-7.2 v 3.6 l -3,3.6 z M 333.4,81.9 v 3.6 l -6.5,-5.2 1.5,-4.8 -3.6,-4.4 5,-1.6 -0.7,10 z M 321.9,56.7 h -4.3 l -0.8,-4.4 h 3.7 z m 8.6,-3.6 -2.9,2 -5,-2.8 3.6,-2 z m 80,7.2 32.4,8 17.2,4 21.6,5.2 10.8,2.8 28,6 36.8,7.6 18.8,3.6 29.6,6 22.8,3.6 26,4.4 15.2,2.8 35.2,4.8 36,5.2 29.6,3.6 30.8,3.6 29.6,2.8 28.8,2.4 31.6,2.8 26.8,1.6 14.4,1.2 38,1.6 18.8,0.8 14.7,0.4 30,0.8 21,0.8 h 24 31 5 l -1,-16.8 6,0.8 3,2.8 5,17.6 v 4.4 l 2,2.8 6,0.8 4,2 12,0.8 2,4.4 9,-1.6 v -1.6 l 8,-2.8 3,0.8 h 2 l 8,3.6 3,4.4 4,-0.8 4,9.2 3,-0.4 v -4.4 l 3,-1.6 5,2.4 -1,2 7,2 3,3.6 8,3.2 5,-2.4 6,-4.4 4,-2.8 4,6 h 11 l 7,-1.6 4,0.8 3,4.4 5,-2.4 3,1.6 -4,4.4 -5,2.8 -17,6.4 -5,3.6 -8,7.2 -12,15.2 -4,2 -6,6.4 -8,7.2 2,3.2 7,0.4 7,-2.8 13,-5.6 7,-4.4 3,2.8 -4,6 v 7.2 l 6,-3.6 5,3.6 h 4 l 11,-5.2 4,-4.4 3,-2 10,-2.4 6,-2.8 2,-3.6 6,-2 2,-3.6 10,-8.8 2,-3.6 7,-4.4 11,-1.2 v 3.6 l -6,4.4 -6,4 -5,12.4 1,5.6 5,-6.4 6,0.8 h 4 l 7,2 6,8 6,6 6,-0.8 4,-1.6 5,2.8 6,0.8 2,-3.6 11,-8.4 8,-2.4 11,-0.8 7,-3.6 8,-1.2 -1,10.8 1,1.2 h 8 l 4,-1.2 3,2 3,-3.6 9,-1.2 -1,3.6 2,10 8,8.4 h -6 -4 l -6,2.4 v -2.4 l -7,-1.2 -4,8.4 -6,-4.8 -10,-2.8 -6,0.4 -3,5.2 -7,1.6 -1,2 -8,-0.8 -4,2.8 -1,5.2 -2,1.6 -3,0.4 -2,6 -2,-1.6 4,-8.4 h -7 l -2,6.4 -3,2 -3,-1.2 -5,7.6 -5,12.4 -4,5.6 v 2.4 l -1,4.8 -3,0.8 -4,6.4 -2,6.8 -1,5.6 3,0.8 5,-6 v -1.2 l 4,-7.2 5,-2.4 5,-12.8 6,-2 v 4.8 l -2,1.6 -2,8.4 -4,3.6 v 5.2 l -3,7.2 -2,8.8 2,5.6 -4,3.6 -1,9.2 1,8.8 -2,6.4 -3,13.2 1,2.8 3,14.4 3,2.8 -1,5.2 1,7.2 -1,8.4 3,6 3,2.8 3,10 3,5.6 5,3.2 h 5 l 9,-5.2 3,-2 6,-6.8 4,-10 3,-5.6 2,-8 1,-15.2 -2,-9.2 -2,-6 -5,-7.6 -3,-6.8 -3,-5.6 3,-9.2 -4,-10.4 3,-4.8 3,-8 1,-7.2 -1,-8 4,-3.6 v -5.6 l 4,-2.8 h 4 l 1,-4.4 5,-1.6 v 13.2 l 3,0.4 2,-4.8 2,-2.8 v -8 l -2,-4.4 v -2.8 l 5,-4.4 3,-0.8 -1,-8.4 4,-6.8 6,-3.6 9,4.4 4,-0.8 3,0.8 4,5.2 h 6 l 3,2 13,4.4 2,3.6 2,2.8 -4,5.2 2,4.4 3,2 3,5.6 v 9.6 7.2 l -5,3.6 -1,4.8 -2,8 -6,0.8 -1,3.6 -1,6.4 2,2.8 7,3.2 7,-6.8 1,-4.8 3,-6.4 6,-2.4 4,-2.8 6,2 5,6.8 1,5.6 4,10.8 3,10.8 3,8 v 2 7.2 7.2 l -5,2.4 -2,-5.2 -3,2.8 v 8 l -2,4.4 -4,2 -1,3.6 1,6.4 -2,3.2 -7,10.8 v 2.8 l 10,3.6 7,3.6 -2,2.8 4,0.8 7,-2.4 7,2.4 4,-2.4 3,-0.4 7,-5.2 2,0.8 7,-0.8 7,-7.2 6,-6.4 8,-5.2 14,-8 6,-3.6 16,-12.8 8,-8 4,-4.4 5,-3.6 2,-5.6 5,-4.4 -1,-3.6 -6,-8.4 -3,-7.2 13,-7.2 5,-1.6 14,-2 7,-0.8 7,2.8 6,-2 6,-2.4 6,-0.8 7,-4 2,-3.6 6,-6 3,-0.8 3,-2.8 -1,-4.4 -2,-5.6 2,-5.6 -5,-1.6 -4,-4.4 1,-4.4 4,-4 8,-7.2 2,-5.2 10,-16.4 8,-8.8 5,-2 h 3 l 20,-4.4 21,-6 4,-1.2 19,-4.4 19,-5.2 13,-2.8 v -10 l 2,-3.6 6,1.6 v -3.2 l 4,-2.8 4,1.6 -1,-5.2 5,-1.2 -3,-3.2 v -3.6 l 3,-4.8 3,-3.6 -1,-2.8 3,-4.4 1,-2.8 -4,-3.2 1,-5.6 -2,-1.6 1,-6.4 4,-4.8 -1,-6.8 -1,-4.8 13,-38.4 6,0.8 1,7.2 5,0.8 8,-6.4 6,-1.6 v -3.6 l 3,-0.8 10,4.4 6,3.6 14,46 3,10.8 6,1.6 6,-0.8 -1,5.2 3,2.8 v 5.2 l 6,4.8 1,-2.8 h 4 l 10,12.4 -4,8.4 -4,0.8 -2,3.6 h -4 v 4.4 l -8,2.8 -3,2.8 1,2.8 -2,3.6 -3,-4.8 -5,1.2 5,4.4 -1,2.8 -6,1.6 v -6.4 l -6,3.6 1,4.8 -5,-0.4 -2,1.2 -2,-9.2 v 2.8 l -4,2.8 2,4.4 -1,3.6 v 7.2 l -1,7.2 -6,-1.6 -2,1.6 v 6.4 l -6,0.8 -1,5.2 h -4 l -5,2.8 -3,-0.8 -2,5.2 3,4 -4,2.4 1,4.4 -4,4.8 -1,13.2 -1,0.4 -1,8.8 3,7.2 5,2.8 -6,3.6 -2,6 -1,5.6 h 1 l 4,0.8 2,-0.8 1,0.8 7,4.8 -1,5.2 6,1.6 1,4 6,2.4 4,-2.4 6,-2.8 4,3.6 -15,7.2 v 2.8 l -6,2.4 -1,-8 -6,5.2 -1,4 -5,3.6 -7,0.8 3,-7.2 -2,-1.2 h -4 l -2,-0.8 1,4.4 1,7.6 v 5.2 l -12,5.2 -3,0.4 -11,5.3 -1,-1.5 -5,3.4 -12,2.4 -5,6.5 -3,0.7 -6,6.5 -7,4.3 -2,4.8 v 3.8 l 2,0.6 v -4.2 l 4,-2.8 4,1.4 1,-4.4 6,0.8 5,-3.6 13,-4.4 6,-6.4 5,1.2 3,-1.2 3,2 3,-4.4 h 3 l -16,13.6 -22,14.7 -5,2.5 -4,1.6 -7,1.6 -5,2 -4,-1.2 v -3.6 l 5,-5.8 -6,5.3 v 0.5 l -4,3.6 v 0.8 1.2 l -2,5.2 3,1.2 h 8 l 1,4.4 v 8.8 l 1,15.2 -2,10 -3,2 1,2.8 -2,4.4 -4,3.6 -3,6 -2,8.4 -3,4.4 -2,-3.6 1,-3.6 -1,-3.6 -9,-0.8 -9,-4.8 -5,-2.4 -2,-5.6 v -0.8 l 3,-8.8 v 0 l -2,0.8 -2,9.6 1,4.8 3,4.4 4,1.6 2,4.8 1,6 4,3.6 5,4.8 4,0.8 4,13.6 -1,16 -1,3.6 -2,6.4 h -2 l -4,8 v 7.2 l -1,4.8 -2,12.4 -5,4.4 -2,-5.2 v -13.6 l 2,-8 2,-2.8 1,-8.8 -8,0.8 3,-3.6 -4,-4.8 1,-3.2 h -3 v -4.8 l -4,7.2 -6,-4.4 -2,0.8 -4,-4.4 3,-2.8 -3,-3.6 4,-1.6 5,1.6 -8,-4.4 -3,-0.8 v -3.6 l 3,-1.2 -1,-4.4 v -6.4 l -4,-1.6 2,-8 1,-2.8 4,-0.8 -1,-8 -3,1.6 v 4.4 l -5,6.4 -3,-2.8 1,2 -2,6.4 -3,-0.4 v 1.2 l 4,2.4 v 6.4 l 1,2 -2,8.8 2,1.2 2,7.2 5,6 -2,2.8 h 3 l 3,7.2 -5,1.6 -4,-3.2 -7,-0.4 -2,-3.6 -2,2.8 -5,-6 -6,5.2 -2,-5.2 2,-7.2 -3,-0.4 -1,7.2 2,6.4 2,0.8 7,-3.6 1,4 2,2.4 4,1.2 8,-0.4 3,4 11,3.6 -1,3.6 v 6 l -1,2.8 h -6 l -4,-5.6 h -2 l -9,-6.8 10,8.8 2,0.8 4,4.8 7,2.4 4,2 -1,6 -4,-3.2 -1,2.4 4,3.6 -4,2 3,2.8 5,1.6 v 4.4 l -3,1.2 -8,-4 v -1.6 h -5 l -5,-2 -2,1.2 9,2.4 1,2.8 7,3.6 v 1.2 h 4 2 l 1,-3.6 4,0.8 6,-0.8 8,15.2 6,12.4 -1,0.8 -3,-8 -3,-2.4 v 10.4 2.8 l -6,-2.8 h -2 l 5,2.8 -3,4.4 -3,-2.4 2,2.4 -7,3.6 -4,3.6 -4,-0.8 -2,-3.6 v -6.4 l -1,2 v 4.4 l 3,8 5,-0.8 5,-2.8 2,2 6,-4.4 4,-0.8 2,3.2 -1,3.6 2,7.2 h 1 l -1,-9.6 3,-4.8 5,3.6 3,7.2 -1,5.6 -4,-0.8 -5,11.6 -6,2.8 -5,0.8 -6,-3.6 3,-5.2 -6,3.2 3,4.8 -1,2.4 6,2.8 -2,7.2 -4,4.8 -3,2.4 -5,-2.8 v 3.6 l 7,1.2 3,-2.8 6,-2.8 6,4.4 -3,4.8 -5,3.6 -10,1.6 -7,3.6 -6,7.2 -5,5.6 -6,7.2 -3,6.4 -2,10.8 -2,2.4 h -4 l -9,1.2 -6,3.6 -8,6.8 -6,7.6 -2,4.4 -2,8 v 6.4 l -2,2.8 -2,5.2 -8,0.8 1,4.8 -4,5.2 -5,3.6 v 2.8 l -4,3.6 -4,1.6 -4,3.6 -3,2 -5,0.8 2,3.6 v 3.6 l -7,5.6 -2,3.6 -4,3.2 v 2 l -1,5.6 -6,8.8 -3,0.8 4,3.6 -2,2.8 1,2 -4,7.2 1,3.2 1,2.8 -4,4.8 v 5.2 l 2,4.4 -1,8.8 1,7.6 5,10.8 8,19.6 2,4.4 6,9.2 6,11.6 12,13.6 7,7.2 3,5.2 -2,2.8 v 6.4 l 3,4 5,12.3 7,12 7,12 7,12 3,4 1,8 v 12 l 1,16 2,8 -5,4 -2,12 2,4 -2,4 v 0 0 l 4,-4 -3,12 -5,-4 h -3 l -5,4 h -6 -1 l -7,4 -4,-4 1,-8 -3,-4 -4,-4 -2,-4 -8,-4 -6,-4 -2,4 -6,-12 -3,-8 -8,-8 h -5 l 1,-8 v -4 l -3,-4 h -2 l 2,8 h -2 -3 l -5,-8 -7,-8 -6,-8 -3,-4 h 3 l 3,-8 4,-8 -1,-4 -4,4 -2,-4 -3,-4 v 4 l 3,4 -1,8 h -4 l -6,-8 2,-4 -2,-8 2,-4 2,-8.3 v -4 l -1,-6.4 -4,-5.6 1,-3.6 -2,-3.2 -4,-6.4 h -6 l -8,-4.4 -2,-4.8 -7,-3.6 -1,-6 -3,-0.4 -5,-3.6 -4,-6 -9,-3.6 -3,-1.2 h -4 l -6,0.4 -6,6 -4,3.6 -11,8.4 -9,2.4 -4,1.2 -4,0.8 v -4.8 l -3,-5.2 -5,-1.6 -3,-2.8 -16,-8 -8,-2 -8,-1.6 -8,0.8 -6,0.8 -5,1.6 -8,2 -6,0.8 -7,2.8 -5,1.6 -4,-1.6 -6,-4.4 -2,-10 -3,-1.6 -3,5.2 v 8.8 l -2,0.4 -6,-1.2 -2,1.2 -2,2.4 -8,-0.8 -3,0.8 -5,-2.8 -15,6.4 -2,-2.8 v 2.8 l -6,5.6 -4,1.6 -3,3.6 -5,2.8 1,2.8 5,2.8 3,-0.4 1,-5.2 3,-2 3,2.8 4,2 -6,12.4 -1,-0.8 h -1 l -5,1.6 1,4 8,5.2 10,1.6 7,8.4 -1,4 h -9 l -7,-8 -7,-0.8 -5,-1.6 1,-2 -8,-3.2 -2,3.6 v 0.8 0.8 l -3,2.4 2,4 v 0 l -5,4 -4,-8 h -4 -5 l -4,8 -7,4.3 -4,-4.3 h -4 l -9,-4 2,-8 h -1 l -4,-2 -4,1.6 -6,-11.6 -9,0.8 1,-4.4 h -5 l -6,4.4 -3,0.4 2,6.8 -6,2 -11,-1.6 -14,-5.6 -8,-2 -11,0.4 -10,1.6 -3,2 -9,1.6 -11,4.4 v 0.8 h -4 l -2,-0.8 -9,2 2,-4.8 v -5.2 h -4 l -4,3.6 -3,5.6 5,4 -1,8 -5,4.3 h -4 l 1,4 -10,8 -4,4 -10,4 -12,8 -11,4 -2,4 -6,4 -10,8 v -4 h 1 l 5,-4 4,-4 h 6 l -1,-4 -9,4 v -4 h -3 -3 l 2,4 v 4 h -1 l -4,4 -4,-4 -8,8 h 7 l -3,4 v 4 h -1 -11 -2 4 l 2,4 3,4 -3,4 -3,12 -4,-4 -4,4 h -5 l 8,4 5,-4 -2,20 h -2 l 2,8 4,8 2,8 h -1 l 1,8 h 5 l -3,4 -5,4 h -1 -6 l -4,-4 -8,-4 h -8 -8 l -7.5,-8 h -5.2 -2.8 l -6.4,-4 h -2.4 l -7.2,-4 -0.4,-4 -3.2,-4 -3.6,-12 -6.4,-8 1.6,-4 -1.6,-4 -1.2,-4 1.2,-8 h -1.2 l -3.6,-4 -4.4,-4 -6,-4 -0.4,-4 -3.2,-4 -3.6,-8 h -4.8 l -2.8,-4 -1.6,-8 -3.6,-8 -1.6,-4 -2,-4 -3.6,-8 v -4 l -4.4,-8.3 -8,-4.8 -1.2,-4.4 -3.6,-0.8 -6,-5.2 0.8,-2 -5.6,-5.2 -4.4,-2 -2.8,1.6 -4.4,-1.6 -8,-2 -3.6,1.2 -8.4,-4.8 -3.6,4.8 -3.2,-1.2 -7.6,2 -2.4,5.2 -2.8,3.6 -1.6,6.4 -12.8,17.5 -10,-4.3 -4.4,-8 -6.4,-0.4 -2.4,-3.6 -8.4,-2.8 -5.2,-3.6 -1.2,-4.4 -4.4,-1.2 -6.4,-6 -0.8,-4 -4.4,-8 -0.8,-6.4 1.6,-5.2 -3.6,-8.8 -2.4,-0.4 -0.4,-8 -2.4,-2.8 -8,-8.8 -6.4,-2 -0.8,-2.4 -4.8,-4.4 -1.6,-4 -5.6,-4.4 -2.8,-6 -4.4,-4.4 -2.4,-0.4 -4.8,-4.4 -5.2,-11.6 -4.8,-2.8 -27.6,-2.8 -33.2,-4.4 -2.8,19.2 -30,-4 -51.2,-7.2 -22.4,-3.6 -10,-6 -29.6,-17.2 -36.8,-20.8 -30,-18.8 -18.8,-10.8 1.2,-5.2 4.4,-3.6 -49.6,-5.6 -36.8,-5.2 -0.7,-5.6 -2.9,-2 2.2,-7.2 -0.7,-10.8 -3.6,-10.4 -2.9,-3.6 -5,-7.6 -4.4,-3.6 -5,-7.2 h -6.5 l -4.3,-4.4 2.2,-2.4 -0.8,-4.8 -3.6,-5.2 h -8.6 l -4.3,-2.8 -7.9,-6.4 -0.8,-6 -5.7,-6.4 -2.9,-2 -10.8,-2.8 -3.6,-3.2 -9.4,-2.8 -6.4,-0.8 -0.8,-3.6 -3.6,-3.6 2.9,-4.8 1.5,-11.6 1.4,-6.4 -7.2,-7.2 2.9,-6.4 -3.6,-3.6 -3.6,-8.8 -2.9,-2 -1.4,-6 -2.9,-4.8 v -6 l -2.2,-1.2 -2.9,-8 -2.8,-2.8 -1.5,-11.6 2.2,-6.4 4.3,0.4 2.2,-7.6 -2.2,-6.8 h -5 l -4.4,-4.8 -0.7,-4.4 -2.9,-4.4 2.2,-6.4 -0.7,-6.4 -1.5,-1.6 2.9,-8 0.7,-2.8 3.6,-0.8 -0.7,4.4 -0.7,6 3.6,1.2 2.9,6 2.9,0.4 -2.2,-2 0.7,-7.2 -4.3,-7.2 1.4,-3.6 -2.1,-4.4 5.7,-2 -2.8,-5.2 -3.6,0.8 -3.6,12.4 -5.8,-5.2 -2.9,-5.6 -2.9,-2.4 0.8,-5.6 v -6 l -2.2,-7.6 -5,-7.2 -3.6,-10.4 -2.9,-4 -1.5,-5.2 2.9,-3.6 -0.7,-13.6 4.3,-8 0.7,-12.4 -2.8,-8.4 -1.5,-5.2 -2.1,-2 -4.4,-7.2 1.5,-8 4.3,-6.4 8.6,-8.8 3.6,-5.6 -0.7,-2.8 3.6,-6 3.6,-9.2 0.7,-12.4 -2.1,-2 4.3,-8.8 -2.9,-6.4 v -5.6 l 1.5,-8 2.8,-6 0.8,-3.6 -2.2,-8.4 3.6,-4.4 7.2,-11.6 5,-6.4 4.4,-6.4 4.3,-10 6.5,-16.8 6.4,-15.2 1.5,-5.6 5,-9.2 2.2,-4.4 8.6,-24 v -2 l 4.3,-11.6 3.6,-2.8 10.1,-1.6 -5,-2.8 -5.1,0.8 -2.1,-3.6 1.4,-6.4 3.6,-1.6 -0.7,-8.8 -1.4,-4 1.4,-3.2 3.6,-1.2 v -5.2 l -3.6,-0.8 0.7,-11.2 -1.4,-6 1.4,-4.8 v -9.6 l -2.9,-7.2 -0.7,-4.8 0.7,-8 4.4,-6 2.8,-0.4 4.4,4.8 3.6,2.4 4.3,4.8 9.3,3.6 7.2,4.4 5.1,1.6 2.9,-1.6 2.1,4.4 2.9,1.2 5,-2 2.2,2.8 -1.4,10 -7.2,1.6 -2.9,5.2 -2.9,1.2 -2.2,2.8 4.4,-2.8 5,-0.8 3.6,-4.8 5.8,-3.6 -0.8,7.2 -2.8,10 -2.9,3.6 -2.9,5.6 -5,-3.6 v -2 l -2.9,2.8 -0.7,4.4 3.6,4.4 7.2,-6 3.6,-1.2 2.8,-1.6 v -8.4 l 2.9,-8 4.3,-6.4 3.6,-2.4 -2.8,-4.4 v -5.6 -1.6 l 1.4,-1.2 -6.5,-6.4 2.9,-4.4 2.9,2.8 2.1,-7.2 0.8,-3.6 -5.1,-4.4 -1.4,-4.4 2.1,-4 28.1,7.6 24.5,6.8 z" id="outline"></path>
  <g id="labels" transform="translate(0,0.14)">
    <text id="text902" y="922.3" x="968" style="font-style:normal;font-variant:normal;font-weight:normal;font-stretch:normal;font-size:29.3333px;line-height:1.25;font-family:Arial;-inkscape-font-specification:Arial;letter-spacing:0px;word-spacing:0px;fill:#000000;fill-opacity:1;stroke:none" xml:space="preserve"><tspan style="font-style:normal;font-variant:normal;font-weight:normal;font-stretch:normal;font-size:29.3333px;font-family:Arial;-inkscape-font-specification:Arial" y="922.3" x="968" id="tspan900">TX</tspan></text>
    <text id="text902-2" y="342" x="1717" style="font-style:normal;font-variant:normal;font-weight:normal;font-stretch:normal;font-size:29.3333px;line-height:1.25;font-family:Arial;-inkscape-font-specification:Arial;letter-spacing:0px;word-spacing:0px;fill:#000000;fill-opacity:1;stroke:none" xml:space="preserve"><tspan style="font-style:normal;font-variant:normal;font-weight:normal;font-stretch:normal;font-size:29.3333px;font-family:Arial;-inkscape-font-specification:Arial" y="342" x="1717" id="tspan900-3">NY</tspan></text>
    <text xml:space="preserve" style="font-style:normal;font-variant:normal;font-weight:normal;font-stretch:normal;font-size:29.3333px;line-height:1.25;font-family:Arial;-inkscape-font-specification:Arial;letter-spacing:0px;word-spacing:0px;fill:#000000;fill-opacity:1;stroke:none" x="516.6" y="740.1" id="text4494"><tspan id="tspan4492" x="516.6" y="740.1" style="font-style:normal;font-variant:normal;font-weight:normal;font-stretch:normal;font-size:29.3333px;font-family:Arial;-inkscape-font-specification:Arial">AZ</tspan></text>
    <text id="text4498" y="580.1" x="264.6" style="font-style:normal;font-variant:normal;font-weight:normal;font-stretch:normal;font-size:29.3333px;line-height:1.25;font-family:Arial;-inkscape-font-specification:Arial;letter-spacing:0px;word-spacing:0px;fill:#000000;fill-opacity:1;stroke:none" xml:space="preserve"><tspan style="font-style:normal;font-variant:normal;font-weight:normal;font-stretch:normal;font-size:29.3333px;font-family:Arial;-inkscape-font-specification:Arial" y="580.1" x="264.6" id="tspan4496">CA</tspan></text>
    <text xml:space="preserve" style="font-style:normal;font-variant:normal;font-weight:normal;font-stretch:normal;font-size:29.3333px;line-height:1.25;font-family:Arial;-inkscape-font-specification:Arial;letter-spacing:0px;word-spacing:0px;fill:#000000;fill-opacity:1;stroke:none" x="386.6" y="492.1" id="text4502"><tspan id="tspan4500" x="386.6" y="492.1" style="font-style:normal;font-variant:normal;font-weight:normal;font-stretch:normal;font-size:29.3333px;font-family:Arial;-inkscape-font-specification:Arial">NV</tspan></text>
    <text id="text4506" y="536.1" x="556.6" style="font-style:normal;font-variant:normal;font-weight:normal;font-stretch:normal;font-size:29.3333px;line-height:1.25;font-family:Arial;-inkscape-font-specification:Arial;letter-spacing:0px;word-spacing:0px;fill:#000000;fill-opacity:1;stroke:none" xml:space="preserve"><tspan style="font-style:normal;font-variant:normal;font-weight:normal;font-stretch:normal;font-size:29.3333px;font-family:Arial;-inkscape-font-specification:Arial" y="536.1" x="556.6" id="tspan4504">UT</tspan></text>
    <text xml:space="preserve" style="font-style:normal;font-variant:normal;font-weight:normal;font-stretch:normal;font-size:29.3333px;line-height:1.25;font-family:Arial;-inkscape-font-specification:Arial;letter-spacing:0px;word-spacing:0px;fill:#000000;fill-opacity:1;stroke:none" x="744.6" y="570.1" id="text4510"><tspan id="tspan4508" x="744.6" y="570.1" style="font-style:normal;font-variant:normal;font-weight:normal;font-stretch:normal;font-size:29.3333px;font-family:Arial;-inkscape-font-specification:Arial">CO</tspan></text>
    <text id="text4514" y="756.1" x="710.6" style="font-style:normal;font-variant:normal;font-weight:normal;font-stretch:normal;font-size:29.3333px;line-height:1.25;font-family:Arial;-inkscape-font-specification:Arial;letter-spacing:0px;word-spacing:0px;fill:#000000;fill-opacity:1;stroke:none" xml:space="preserve"><tspan style="font-style:normal;font-variant:normal;font-weight:normal;font-stretch:normal;font-size:29.3333px;font-family:Arial;-inkscape-font-specification:Arial" y="756.1" x="710.6" id="tspan4512">NM</tspan></text>
    <text xml:space="preserve" style="font-style:normal;font-variant:normal;font-weight:normal;font-stretch:normal;font-size:29.3333px;line-height:1.25;font-family:Arial;-inkscape-font-specification:Arial;letter-spacing:0px;word-spacing:0px;fill:#000000;fill-opacity:1;stroke:none" x="322.6" y="1000" id="text4518"><tspan id="tspan4516" x="322.6" y="1000" style="font-style:normal;font-variant:normal;font-weight:normal;font-stretch:normal;font-size:29.3333px;font-family:Arial;-inkscape-font-specification:Arial">AK</tspan></text>
    <text id="text4522" y="1126" x="662.6" style="font-style:normal;font-variant:normal;font-weight:normal;font-stretch:normal;font-size:29.3333px;line-height:1.25;font-family:Arial;-inkscape-font-specification:Arial;letter-spacing:0px;word-spacing:0px;fill:#000000;fill-opacity:1;stroke:none" xml:space="preserve"><tspan style="font-style:normal;font-variant:normal;font-weight:normal;font-stretch:normal;font-size:29.3333px;font-family:Arial;-inkscape-font-specification:Arial" y="1126" x="662.6" id="tspan4520">HI</tspan></text>
    <text xml:space="preserve" style="font-style:normal;font-variant:normal;font-weight:normal;font-stretch:normal;font-size:29.3333px;line-height:1.25;font-family:Arial;-inkscape-font-specification:Arial;letter-spacing:0px;word-spacing:0px;fill:#000000;fill-opacity:1;stroke:none" x="1027" y="740" id="text4526"><tspan id="tspan4524" x="1027" y="740" style="font-style:normal;font-variant:normal;font-weight:normal;font-stretch:normal;font-size:29.3333px;font-family:Arial;-inkscape-font-specification:Arial">OK</tspan></text>
    <text id="text4530" y="606" x="989" style="font-style:normal;font-variant:normal;font-weight:normal;font-stretch:normal;font-size:29.3333px;line-height:1.25;font-family:Arial;-inkscape-font-specification:Arial;letter-spacing:0px;word-spacing:0px;fill:#000000;fill-opacity:1;stroke:none" xml:space="preserve"><tspan style="font-style:normal;font-variant:normal;font-weight:normal;font-stretch:normal;font-size:29.3333px;font-family:Arial;-inkscape-font-specification:Arial" y="606" x="989" id="tspan4528">KS</tspan></text>
    <text xml:space="preserve" style="font-style:normal;font-variant:normal;font-weight:normal;font-stretch:normal;font-size:29.3333px;line-height:1.25;font-family:Arial;-inkscape-font-specification:Arial;letter-spacing:0px;word-spacing:0px;fill:#000000;fill-opacity:1;stroke:none" x="955" y="474" id="text4534"><tspan id="tspan4532" x="955" y="474" style="font-style:normal;font-variant:normal;font-weight:normal;font-stretch:normal;font-size:29.3333px;font-family:Arial;-inkscape-font-specification:Arial">NE</tspan></text>
    <text id="text4538" y="346" x="935" style="font-style:normal;font-variant:normal;font-weight:normal;font-stretch:normal;font-size:29.3333px;line-height:1.25;font-family:Arial;-inkscape-font-specification:Arial;letter-spacing:0px;word-spacing:0px;fill:#000000;fill-opacity:1;stroke:none" xml:space="preserve"><tspan style="font-style:normal;font-variant:normal;font-weight:normal;font-stretch:normal;font-size:29.3333px;font-family:Arial;-inkscape-font-specification:Arial" y="346" x="935" id="tspan4536">SD</tspan></text>
    <text xml:space="preserve" style="font-style:normal;font-variant:normal;font-weight:normal;font-stretch:normal;font-size:29.3333px;line-height:1.25;font-family:Arial;-inkscape-font-specification:Arial;letter-spacing:0px;word-spacing:0px;fill:#000000;fill-opacity:1;stroke:none" x="699" y="386" id="text4542"><tspan id="tspan4540" x="699" y="386" style="font-style:normal;font-variant:normal;font-weight:normal;font-stretch:normal;font-size:29.3333px;font-family:Arial;-inkscape-font-specification:Arial">WY</tspan></text>
    <text id="text4546" y="326" x="509" style="font-style:normal;font-variant:normal;font-weight:normal;font-stretch:normal;font-size:29.3333px;line-height:1.25;font-family:Arial;-inkscape-font-specification:Arial;letter-spacing:0px;word-spacing:0px;fill:#000000;fill-opacity:1;stroke:none" xml:space="preserve"><tspan style="font-style:normal;font-variant:normal;font-weight:normal;font-stretch:normal;font-size:29.3333px;font-family:Arial;-inkscape-font-specification:Arial" y="326" x="509" id="tspan4544">ID</tspan></text>
    <text xml:space="preserve" style="font-style:normal;font-variant:normal;font-weight:normal;font-stretch:normal;font-size:29.3333px;line-height:1.25;font-family:Arial;-inkscape-font-specification:Arial;letter-spacing:0px;word-spacing:0px;fill:#000000;fill-opacity:1;stroke:none" x="315" y="276" id="text4550"><tspan id="tspan4548" x="315" y="276" style="font-style:normal;font-variant:normal;font-weight:normal;font-stretch:normal;font-size:29.3333px;font-family:Arial;-inkscape-font-specification:Arial">OR</tspan></text>
    <text id="text4554" y="138" x="355" style="font-style:normal;font-variant:normal;font-weight:normal;font-stretch:normal;font-size:29.3333px;line-height:1.25;font-family:Arial;-inkscape-font-specification:Arial;letter-spacing:0px;word-spacing:0px;fill:#000000;fill-opacity:1;stroke:none" xml:space="preserve"><tspan style="font-style:normal;font-variant:normal;font-weight:normal;font-stretch:normal;font-size:29.3333px;font-family:Arial;-inkscape-font-specification:Arial" y="138" x="355" id="tspan4552">WA</tspan></text>
    <text xml:space="preserve" style="font-style:normal;font-variant:normal;font-weight:normal;font-stretch:normal;font-size:29.3333px;line-height:1.25;font-family:Arial;-inkscape-font-specification:Arial;letter-spacing:0px;word-spacing:0px;fill:#000000;fill-opacity:1;stroke:none" x="669" y="210" id="text4558"><tspan id="tspan4556" x="669" y="210" style="font-style:normal;font-variant:normal;font-weight:normal;font-stretch:normal;font-size:29.3333px;font-family:Arial;-inkscape-font-specification:Arial">MT</tspan></text>
    <text id="text4562" y="218" x="937" style="font-style:normal;font-variant:normal;font-weight:normal;font-stretch:normal;font-size:29.3333px;line-height:1.25;font-family:Arial;-inkscape-font-specification:Arial;letter-spacing:0px;word-spacing:0px;fill:#000000;fill-opacity:1;stroke:none" xml:space="preserve"><tspan style="font-style:normal;font-variant:normal;font-weight:normal;font-stretch:normal;font-size:29.3333px;font-family:Arial;-inkscape-font-specification:Arial" y="218" x="937" id="tspan4560">ND</tspan></text>
    <text xml:space="preserve" style="font-style:normal;font-variant:normal;font-weight:normal;font-stretch:normal;font-size:29.3333px;line-height:1.25;font-family:Arial;-inkscape-font-specification:Arial;letter-spacing:0px;word-spacing:0px;fill:#000000;fill-opacity:1;stroke:none" x="1111" y="272" id="text4566"><tspan id="tspan4564" x="1111" y="272" style="font-style:normal;font-variant:normal;font-weight:normal;font-stretch:normal;font-size:29.3333px;font-family:Arial;-inkscape-font-specification:Arial">MN</tspan></text>
    <text id="text4570" y="338" x="1263" style="font-style:normal;font-variant:normal;font-weight:normal;font-stretch:normal;font-size:29.3333px;line-height:1.25;font-family:Arial;-inkscape-font-specification:Arial;letter-spacing:0px;word-spacing:0px;fill:#000000;fill-opacity:1;stroke:none" xml:space="preserve"><tspan style="font-style:normal;font-variant:normal;font-weight:normal;font-stretch:normal;font-size:29.3333px;font-family:Arial;-inkscape-font-specification:Arial" y="338" x="1263" id="tspan4568">WI</tspan></text>
    <text xml:space="preserve" style="font-style:normal;font-variant:normal;font-weight:normal;font-stretch:normal;font-size:29.3333px;line-height:1.25;font-family:Arial;-inkscape-font-specification:Arial;letter-spacing:0px;word-spacing:0px;fill:#000000;fill-opacity:1;stroke:none" x="1155" y="452" id="text4574"><tspan id="tspan4572" x="1155" y="452" style="font-style:normal;font-variant:normal;font-weight:normal;font-stretch:normal;font-size:29.3333px;font-family:Arial;-inkscape-font-specification:Arial">IA</tspan></text>
    <text id="text4578" y="528" x="1297" style="font-style:normal;font-variant:normal;font-weight:normal;font-stretch:normal;font-size:29.3333px;line-height:1.25;font-family:Arial;-inkscape-font-specification:Arial;letter-spacing:0px;word-spacing:0px;fill:#000000;fill-opacity:1;stroke:none" xml:space="preserve"><tspan style="font-style:normal;font-variant:normal;font-weight:normal;font-stretch:normal;font-size:29.3333px;font-family:Arial;-inkscape-font-specification:Arial" y="528" x="1297" id="tspan4576">IL</tspan></text>
    <text xml:space="preserve" style="font-style:normal;font-variant:normal;font-weight:normal;font-stretch:normal;font-size:29.3333px;line-height:1.25;font-family:Arial;-inkscape-font-specification:Arial;letter-spacing:0px;word-spacing:0px;fill:#000000;fill-opacity:1;stroke:none" x="1181" y="610" id="text4582"><tspan id="tspan4580" x="1181" y="610" style="font-style:normal;font-variant:normal;font-weight:normal;font-stretch:normal;font-size:29.3333px;font-family:Arial;-inkscape-font-specification:Arial">MO</tspan></text>
    <text id="text4586" y="766" x="1191" style="font-style:normal;font-variant:normal;font-weight:normal;font-stretch:normal;font-size:29.3333px;line-height:1.25;font-family:Arial;-inkscape-font-specification:Arial;letter-spacing:0px;word-spacing:0px;fill:#000000;fill-opacity:1;stroke:none" xml:space="preserve"><tspan style="font-style:normal;font-variant:normal;font-weight:normal;font-stretch:normal;font-size:29.3333px;font-family:Arial;-inkscape-font-specification:Arial" y="766" x="1191" id="tspan4584">AR</tspan></text>
    <text xml:space="preserve" style="font-style:normal;font-variant:normal;font-weight:normal;font-stretch:normal;font-size:29.3333px;line-height:1.25;font-family:Arial;-inkscape-font-specification:Arial;letter-spacing:0px;word-spacing:0px;fill:#000000;fill-opacity:1;stroke:none" x="1199" y="924" id="text4590"><tspan id="tspan4588" x="1199" y="924" style="font-style:normal;font-variant:normal;font-weight:normal;font-stretch:normal;font-size:29.3333px;font-family:Arial;-inkscape-font-specification:Arial">LA</tspan></text>
    <text id="text4594" y="846" x="1295" style="font-style:normal;font-variant:normal;font-weight:normal;font-stretch:normal;font-size:29.3333px;line-height:1.25;font-family:Arial;-inkscape-font-specification:Arial;letter-spacing:0px;word-spacing:0px;fill:#000000;fill-opacity:1;stroke:none" xml:space="preserve"><tspan style="font-style:normal;font-variant:normal;font-weight:normal;font-stretch:normal;font-size:29.3333px;font-family:Arial;-inkscape-font-specification:Arial" y="846" x="1295" id="tspan4592">MS</tspan></text>
    <text xml:space="preserve" style="font-style:normal;font-variant:normal;font-weight:normal;font-stretch:normal;font-size:29.3333px;line-height:1.25;font-family:Arial;-inkscape-font-specification:Arial;letter-spacing:0px;word-spacing:0px;fill:#000000;fill-opacity:1;stroke:none" x="1403" y="836" id="text4598"><tspan id="tspan4596" x="1403" y="836" style="font-style:normal;font-variant:normal;font-weight:normal;font-stretch:normal;font-size:29.3333px;font-family:Arial;-inkscape-font-specification:Arial">AL</tspan></text>
    <text id="text4602" y="828" x="1519" style="font-style:normal;font-variant:normal;font-weight:normal;font-stretch:normal;font-size:29.3333px;line-height:1.25;font-family:Arial;-inkscape-font-specification:Arial;letter-spacing:0px;word-spacing:0px;fill:#000000;fill-opacity:1;stroke:none" xml:space="preserve"><tspan style="font-style:normal;font-variant:normal;font-weight:normal;font-stretch:normal;font-size:29.3333px;font-family:Arial;-inkscape-font-specification:Arial" y="828" x="1519" id="tspan4600">GA</tspan></text>
    <text xml:space="preserve" style="font-style:normal;font-variant:normal;font-weight:normal;font-stretch:normal;font-size:29.3333px;line-height:1.25;font-family:Arial;-inkscape-font-specification:Arial;letter-spacing:0px;word-spacing:0px;fill:#000000;fill-opacity:1;stroke:none" x="1621" y="1020" id="text4606"><tspan id="tspan4604" x="1621" y="1020" style="font-style:normal;font-variant:normal;font-weight:normal;font-stretch:normal;font-size:29.3333px;font-family:Arial;-inkscape-font-specification:Arial">FL</tspan></text>
    <text id="text4610" y="768" x="1611" style="font-style:normal;font-variant:normal;font-weight:normal;font-stretch:normal;font-size:29.3333px;line-height:1.25;font-family:Arial;-inkscape-font-specification:Arial;letter-spacing:0px;word-spacing:0px;fill:#000000;fill-opacity:1;stroke:none" xml:space="preserve"><tspan style="font-style:normal;font-variant:normal;font-weight:normal;font-stretch:normal;font-size:29.3333px;font-family:Arial;-inkscape-font-specification:Arial" y="768" x="1611" id="tspan4608">SC</tspan></text>
    <text xml:space="preserve" style="font-style:normal;font-variant:normal;font-weight:normal;font-stretch:normal;font-size:29.3333px;line-height:1.25;font-family:Arial;-inkscape-font-specification:Arial;letter-spacing:0px;word-spacing:0px;fill:#000000;fill-opacity:1;stroke:none" x="1663" y="684" id="text4614"><tspan id="tspan4612" x="1663" y="684" style="font-style:normal;font-variant:normal;font-weight:normal;font-stretch:normal;font-size:29.3333px;font-family:Arial;-inkscape-font-specification:Arial">NC</tspan></text>
    <text id="text4618" y="708" x="1405" style="font-style:normal;font-variant:normal;font-weight:normal;font-stretch:normal;font-size:29.3333px;line-height:1.25;font-family:Arial;-inkscape-font-specification:Arial;letter-spacing:0px;word-spacing:0px;fill:#000000;fill-opacity:1;stroke:none" xml:space="preserve"><tspan style="font-style:normal;font-variant:normal;font-weight:normal;font-stretch:normal;font-size:29.3333px;font-family:Arial;-inkscape-font-specification:Arial" y="708" x="1405" id="tspan4616">TN</tspan></text>
    <text xml:space="preserve" style="font-style:normal;font-variant:normal;font-weight:normal;font-stretch:normal;font-size:29.3333px;line-height:1.25;font-family:Arial;-inkscape-font-specification:Arial;letter-spacing:0px;word-spacing:0px;fill:#000000;fill-opacity:1;stroke:none" x="1447" y="624" id="text4622"><tspan id="tspan4620" x="1447" y="624" style="font-style:normal;font-variant:normal;font-weight:normal;font-stretch:normal;font-size:29.3333px;font-family:Arial;-inkscape-font-specification:Arial">KY</tspan></text>
    <text id="text4626" y="524" x="1395" style="font-style:normal;font-variant:normal;font-weight:normal;font-stretch:normal;font-size:29.3333px;line-height:1.25;font-family:Arial;-inkscape-font-specification:Arial;letter-spacing:0px;word-spacing:0px;fill:#000000;fill-opacity:1;stroke:none" xml:space="preserve"><tspan style="font-style:normal;font-variant:normal;font-weight:normal;font-stretch:normal;font-size:29.3333px;font-family:Arial;-inkscape-font-specification:Arial" y="524" x="1395" id="tspan4624">IN</tspan></text>
    <text xml:space="preserve" style="font-style:normal;font-variant:normal;font-weight:normal;font-stretch:normal;font-size:29.3333px;line-height:1.25;font-family:Arial;-inkscape-font-specification:Arial;letter-spacing:0px;word-spacing:0px;fill:#000000;fill-opacity:1;stroke:none" x="1417" y="376" id="text4630"><tspan id="tspan4628" x="1417" y="376" style="font-style:normal;font-variant:normal;font-weight:normal;font-stretch:normal;font-size:29.3333px;font-family:Arial;-inkscape-font-specification:Arial">MI</tspan></text>
    <text id="text4634" y="500" x="1497" style="font-style:normal;font-variant:normal;font-weight:normal;font-stretch:normal;font-size:29.3333px;line-height:1.25;font-family:Arial;-inkscape-font-specification:Arial;letter-spacing:0px;word-spacing:0px;fill:#000000;fill-opacity:1;stroke:none" xml:space="preserve"><tspan style="font-style:normal;font-variant:normal;font-weight:normal;font-stretch:normal;font-size:29.3333px;font-family:Arial;-inkscape-font-specification:Arial" y="500" x="1497" id="tspan4632">OH</tspan></text>
    <text xml:space="preserve" style="font-style:normal;font-variant:normal;font-weight:normal;font-stretch:normal;font-size:29.3333px;line-height:1.25;font-family:Arial;-inkscape-font-specification:Arial;letter-spacing:0px;word-spacing:0px;fill:#000000;fill-opacity:1;stroke:none" x="1569" y="568" id="text4638"><tspan id="tspan4636" x="1569" y="568" style="font-style:normal;font-variant:normal;font-weight:normal;font-stretch:normal;font-size:29.3333px;font-family:Arial;-inkscape-font-specification:Arial">WV</tspan></text>
    <text id="text4642" y="594" x="1655" style="font-style:normal;font-variant:normal;font-weight:normal;font-stretch:normal;font-size:29.3333px;line-height:1.25;font-family:Arial;-inkscape-font-specification:Arial;letter-spacing:0px;word-spacing:0px;fill:#000000;fill-opacity:1;stroke:none" xml:space="preserve"><tspan style="font-style:normal;font-variant:normal;font-weight:normal;font-stretch:normal;font-size:29.3333px;font-family:Arial;-inkscape-font-specification:Arial" y="594" x="1655" id="tspan4640">VA</tspan></text>
    <text xml:space="preserve" style="font-style:normal;font-variant:normal;font-weight:normal;font-stretch:normal;font-size:29.3333px;line-height:1.25;font-family:Arial;-inkscape-font-specification:Arial;letter-spacing:0px;word-spacing:0px;fill:#000000;fill-opacity:1;stroke:none" x="1661" y="446" id="text4646"><tspan id="tspan4644" x="1661" y="446" style="font-style:normal;font-variant:normal;font-weight:normal;font-stretch:normal;font-size:29.3333px;font-family:Arial;-inkscape-font-specification:Arial">PA</tspan></text>
    <text id="text4650" y="198" x="1871" style="font-style:normal;font-variant:normal;font-weight:normal;font-stretch:normal;font-size:29.3333px;line-height:1.25;font-family:Arial;-inkscape-font-specification:Arial;letter-spacing:0px;word-spacing:0px;fill:#000000;fill-opacity:1;stroke:none" xml:space="preserve"><tspan style="font-style:normal;font-variant:normal;font-weight:normal;font-stretch:normal;font-size:29.3333px;font-family:Arial;-inkscape-font-specification:Arial" y="198" x="1871" id="tspan4648">ME</tspan></text>
    <text xml:space="preserve" style="font-style:normal;font-variant:normal;font-weight:normal;font-stretch:normal;font-size:29.3333px;line-height:1.25;font-family:Arial;-inkscape-font-specification:Arial;letter-spacing:0px;word-spacing:0px;fill:#000000;fill-opacity:1;stroke:none" x="1719" y="190" id="text4654"><tspan id="tspan4652" x="1719" y="190" style="font-style:normal;font-variant:normal;font-weight:normal;font-stretch:normal;font-size:29.3333px;font-family:Arial;-inkscape-font-specification:Arial">VT</tspan></text>
    <text id="text4658" y="173" x="1780" style="font-style:normal;font-variant:normal;font-weight:normal;font-stretch:normal;font-size:29.3333px;line-height:1.25;font-family:Arial;-inkscape-font-specification:Arial;letter-spacing:0px;word-spacing:0px;fill:#000000;fill-opacity:1;stroke:none" xml:space="preserve"><tspan style="font-style:normal;font-variant:normal;font-weight:normal;font-stretch:normal;font-size:29.3333px;font-family:Arial;-inkscape-font-specification:Arial" y="173" x="1780" id="tspan4656">NH</tspan></text>
    <text xml:space="preserve" style="font-style:normal;font-variant:normal;font-weight:normal;font-stretch:normal;font-size:29.3333px;line-height:1.25;font-family:Arial;-inkscape-font-specification:Arial;letter-spacing:0px;word-spacing:0px;fill:#000000;fill-opacity:1;stroke:none" x="1902" y="313" id="text4662"><tspan id="tspan4660" x="1902" y="313" style="font-style:normal;font-variant:normal;font-weight:normal;font-stretch:normal;font-size:29.3333px;font-family:Arial;-inkscape-font-specification:Arial">MA</tspan></text>
    <text id="text4666" y="400" x="1909" style="font-style:normal;font-variant:normal;font-weight:normal;font-stretch:normal;font-size:29.3333px;line-height:1.25;font-family:Arial;-inkscape-font-specification:Arial;letter-spacing:0px;word-spacing:0px;fill:#000000;fill-opacity:1;stroke:none" xml:space="preserve"><tspan style="font-style:normal;font-variant:normal;font-weight:normal;font-stretch:normal;font-size:29.3333px;font-family:Arial;-inkscape-font-specification:Arial" y="400" x="1909" id="tspan4664">RI</tspan></text>
    <text xml:space="preserve" style="font-style:normal;font-variant:normal;font-weight:normal;font-stretch:normal;font-size:29.3333px;line-height:1.25;font-family:Arial;-inkscape-font-specification:Arial;letter-spacing:0px;word-spacing:0px;fill:#000000;fill-opacity:1;stroke:none" x="1863" y="427" id="text4670"><tspan id="tspan4668" x="1863" y="427" style="font-style:normal;font-variant:normal;font-weight:normal;font-stretch:normal;font-size:29.3333px;font-family:Arial;-inkscape-font-specification:Arial">CT</tspan></text>
    <text id="text4674" y="468" x="1820" style="font-style:normal;font-variant:normal;font-weight:normal;font-stretch:normal;font-size:29.3333px;line-height:1.25;font-family:Arial;-inkscape-font-specification:Arial;letter-spacing:0px;word-spacing:0px;fill:#000000;fill-opacity:1;stroke:none" xml:space="preserve"><tspan style="font-style:normal;font-variant:normal;font-weight:normal;font-stretch:normal;font-size:29.3333px;font-family:Arial;-inkscape-font-specification:Arial" y="468" x="1820" id="tspan4672">NJ</tspan></text>
    <text xml:space="preserve" style="font-style:normal;font-variant:normal;font-weight:normal;font-stretch:normal;font-size:29.3333px;line-height:1.25;font-family:Arial;-inkscape-font-specification:Arial;letter-spacing:0px;word-spacing:0px;fill:#000000;fill-opacity:1;stroke:none" x="1809" y="519" id="text4678"><tspan id="tspan4676" x="1809" y="519" style="font-style:normal;font-variant:normal;font-weight:normal;font-stretch:normal;font-size:29.3333px;font-family:Arial;-inkscape-font-specification:Arial">DE</tspan></text>
    <text id="text4682" y="573" x="1806" style="font-style:normal;font-variant:normal;font-weight:normal;font-stretch:normal;font-size:29.3333px;line-height:1.25;font-family:Arial;-inkscape-font-specification:Arial;letter-spacing:0px;word-spacing:0px;fill:#000000;fill-opacity:1;stroke:none" xml:space="preserve"><tspan style="font-style:normal;font-variant:normal;font-weight:normal;font-stretch:normal;font-size:29.3333px;font-family:Arial;-inkscape-font-specification:Arial" y="573" x="1806" id="tspan4680">MD</tspan></text>
    <path d="m 1803,184.5 36,90.2 m -88,-72.6 42,42.6 m 100,64.6 -41,19.4 m 47,47.2 -41,-21.3 m 7,39.7 -39,-24.9 m -29,186.4 -83,-54.6 m 86,9.1 -29,5.4 m 15,-62.5 25,3.5" style="fill:none;stroke:#000000;stroke-width:1;stroke-linecap:round;stroke-linejoin:round;stroke-miterlimit:4;stroke-dasharray:none" id="lines"></path>
  </g>
  <path d="m 1795,420.6 6,-5.3 m -5,5.8 5,-5.8 m -875.2,613.7 -3.6,-10 h -2.4 l -1.2,-8 -3.6,-4 -0.8,-7 -4.4,-6.5 -7.2,-5.6 -2,-4.4 -3.6,-0.8 -6,-4.8 0.8,-3.2 -4.8,-4.8 -4.4,-2.4 -2.8,2.4 -4.4,-1.6 -8,-2 -3.6,0.8 -9.2,-4.4 -3.6,4.8 -3.2,-1.2 -7.2,2 -2.8,5.2 -2,3.6 -2.4,6.4 -12.8,15.6 -9.2,-3.2 -5.2,-6 -5.6,-1.2 -3.2,-3.6 -7.6,-3.2 -6,-4 -0.8,-3.6 -4.8,-2.4 -6,-5.6 -0.4,-4.4 -4.4,-7.2 -0.8,-6.4 1.6,-5.2 -4.4,-8.4 -1.6,-1.6 -0.8,-8 -2.8,-2 -8,-8.8 -6.4,-2.8 v -2 l -4.8,-4.4 -1.6,-4.4 -5.6,-3.6 -3.2,-5.6 -4,-5.2 -3.2,-0.8 -4.8,-3.6 -4.4,-11.6 -5.2,-2.8 -28,-3.6 -32.4,-3.6 -2.8,18.8 -30.4,-3.6 -51.2,-8 -22,-2.8 -10.4,-5.6 -29.2,-17.6 -36.8,-20.8 -30.3,-18.8 -18.7,-10.8 1.4,-4.8 4.3,-3.6 -50.4,-6.4 -36.7,-4.4 v -6 l -2.9,-2 2.2,-7.2 -0.8,-10.8 -3.6,-10 -2.8,-3.6 -5.1,-8 -4.3,-3.6 -5,-7.2 H 305 l -4.3,-4.4 2.1,-2 -0.7,-5.2 -3.6,-4.8 h -8.6 l -4.4,-3.2 -7.9,-7.2 -0.7,-4.8 -5.8,-6.4 -2.8,-2.4 -10.8,-2.8 -3.6,-2.8 -9.4,-2.8 -6.5,-0.8 -0.7,-3.6 -3.6,-3.6 2.9,-5.2 1.4,-11.6 1.5,-6.4 -7.2,-7.2 2.8,-6.4 -4.3,-3.6 -2.9,-8.8 -2.8,-2 -1.5,-5.6 -2.9,-5.2 v -5.6 l -2.1,-1.6 -2.9,-8 -2.9,-2.8 -1.4,-11.6 2.1,-6.4 4.4,0.8 2.1,-8 -2.1,-6.4 h -5.1 l -4.3,-5.2 -0.7,-3.6 -2.9,-4.8 2.2,-6.8 -0.8,-6.4 -1.4,-1.2 2.9,-8 0.7,-2.8 3.6,-0.8 -0.7,4.8 -0.7,5.2 3.6,1.6 2.8,5.6 2.9,0.8 -2.1,-2.4 0.7,-7.2 -4.3,-7.2 1.4,-3.6 -2.2,-4 5.8,-2.4 -2.9,-4.8 -3.6,0.4 -3.6,12.4 -5.7,-5.2 -2.9,-5.6 -2.9,-2 0.7,-6 v -5.6 l -2.1,-8 -5.1,-7.2 -3.6,-10 -2.9,-3.6 -1.4,-6 2.9,-3.6 -0.7,-13.6 4.3,-7.9 0.7,-12.3 -2.9,-8.6 -1.4,-5 -2.2,-2.2 -3.6,-6.5 0.7,-7.9 4.4,-6.5 8.6,-9.3 3.6,-5.8 -0.7,-2.2 3.6,-6.4 3.6,-9.4 0.7,-12.2 -2.2,-2.2 4.4,-8.6 -2.9,-6.5 V 303 l 1.4,-7.9 2.9,-5.8 0.7,-3.6 -2.1,-8.6 3.6,-3.6 7.2,-12.2 5,-6.5 4.3,-6.5 4.3,-9.4 6.5,-16.6 6.5,-15.8 1.4,-5.8 5.1,-9.3 2.1,-3.6 8.7,-24.5 -0.7,-2.2 5,-11.5 3.6,-2.9 9.4,-1.4 -4.4,-2.9 -5,0.7 -2.2,-3.6 1.5,-6.4 3.6,-0.8 -0.7,-9.3 -1.5,-4.3 0.7,-2.9 4.4,-1.5 V 110 l -3.6,-0.7 0.7,-11.48 -1.5,-5.76 1.5,-5.76 v -9.36 l -2.9,-7.2 -0.7,-5.04 0.7,-7.2 4.3,-6.48 2.9,-0.72 4.3,5.04 3.6,2.16 4.3,5.04 9.4,3.6 7.2,4.32 5,1.44 2.9,-1.44 2.2,4.32 2.9,2.16 5,-2.16 2.2,2.16 -1.5,10.08 -7.2,2.16 -2.9,5.04 -2.8,0.72 -2.2,2.88 4.3,-2.88 5.1,-0.72 3.6,-5.04 5.7,-2.88 -0.7,7.2 -2.9,9.3 -2.9,3.6 -2.8,6.5 -5.1,-3.6 v -2.9 l -2.9,2.9 -0.7,4.3 3.6,4.3 6.5,-5.7 4.3,-0.7 2.9,-2.2 v -8.6 l 2.9,-7.92 4.3,-6.48 3.6,-2.16 -2.9,-4.32 v -5.76 -0.72 l 1.5,-2.16 -6.5,-6.48 2.9,-4.32 2.8,3.6 1.5,-7.2 1.4,-4.32 -5,-4.32 -1.5,-3.6 2.2,-5.04 27.4,8.64 25.2,6.48 23.8,5.76 m 0,0 32.5,8.64 17.2,4.32 21.6,5.04 10.8,2.16 27.2,5.76 37.6,7.92 18.8,3.6 29.2,5.68 23.2,4.4 26,4.3 15.2,2.1 35.2,5.1 35.2,5 30.4,3.6 30,3.6 30.4,2.9 28.8,2.9 31.6,2.1 26,2.2 15.2,0.7 37.2,2.2 18.8,0.7 h 15 l 31,0.7 20,0.7 h 23 31 5 v -16.5 l 6,0.7 4,3.6 4,17.3 -1,4.3 4,2.2 4,0.7 6,2.1 12,0.8 1,5 9,-1.4 v -2.2 l 8,-2.2 h 3 3 l 7,3.6 2,4.4 5,-0.8 4,9.4 3,-0.7 -1,-4.3 4,-0.8 5,1.5 v 2.1 l 5,2.9 4,3.6 8,2.2 5,-2.2 6,-4.3 4,-2.9 4,6.5 11,-0.7 8,-1.5 2,1.5 5,3.6 4,-1.5 4,0.8 -5,4.3 -6,3.6 -15,5.7 -6,3.6 -8,8 -12,14.4 -4,2.1 -5,6.5 -9,7.2 2,2.9 7,0.7 7,-2.8 13,-5.1 7,-5 3,2.9 -3,5.7 -2,7.9 7,-4.3 5,3.6 4,0.7 11,-5.7 4,-4.3 2,-2.2 12,-2.2 5,-2.8 2,-3.7 7,-2.1 v -2.9 l 11,-9.4 2,-3.6 7,-4.3 11,-1.4 v 3.6 l -7,4.3 -4,5 -6,11.5 1,5.8 5,-5.8 h 6 4 l 7,2.2 6,8 6,5.7 6,-0.7 4,-1.4 5,3.6 h 6 l 2,-3.6 11,-8.7 8,-1.4 12,-0.7 6,-4.4 7,-1.4 v 10.8 l 1,1.4 7,0.8 4,-2.2 4,2.2 2,-3.6 10,-1.5 -1,4.3 1,10.1 8,7.9 h -6 -2 l -1,0.8 -6,1.4 -1,-2.2 -6,-0.7 -4,7.9 -6,-5 -10,-2.2 -6,0.8 -4,4.3 -6,1.4 -2,2.2 -7,-0.7 -4,2.8 -1,5.1 -2,1.4 -3,0.7 -3,6.5 -2,-2.1 5,-8.7 -8,0.7 -1,5.8 -3,2.2 -3,-1.5 -6,7.9 -5,12.3 -3,5.7 v 2.2 5 l -4,1.5 -4,5.7 -2,6.5 -1,5.8 3,0.7 5,-5 1,-1.5 2,-7.2 6,-2.9 4,-12.9 6,-2.2 v 5.1 l -2,1.4 -1,8.6 -3,3.6 -2,5.1 -2,7.9 -1,7.9 1,5.8 -4,3.6 -2,9.3 2,8.7 -2,6.5 -3,12.9 1,2.9 3,14.4 3,2.9 -1,5 v 7.2 8.7 l 3,5.7 3,3.6 3,9.3 3,6 6,2.8 h 4 l 9,-5.2 3,-2 6,-6.6 3,-10 4,-5.8 2,-7.9 v -15.1 l -1,-9.4 -2,-5 -5,-8.7 -2,-6.5 -3,-5.7 2,-9.4 -4,-9.3 4,-5.8 3,-7.9 v -7.2 l -1,-7.9 4,-3.6 v -5.8 l 4,-2.9 h 3 l 2,-4.3 5,-1.4 v 12.9 l 3,0.7 2,-5 2,-2.9 v -7.9 l -2,-4.3 1,-2.9 4,-4.3 3,-0.7 -2,-8 5,-7.2 6,-3.6 9,4.4 4,-0.8 4,1.5 3,4.3 h 6 l 2,2.2 14,4.3 1,3.6 3,2.9 -4,5 2,4.3 3,2.2 3,6.5 -1,8.6 1,7.2 -5,3.6 -1,5 -3,8 -4,0.7 -2,3.6 -1,6.5 2,3.6 7,2.8 6,-7.2 2,-5 3,-6.5 6,-1.4 4,-3.6 6,2.1 5,6.5 1,5.8 3,10.8 3,11.5 5,7.2 -2,2.9 1,6.5 -1,7.2 -4,2.1 -2,-5 -3,2.9 -1,7.9 v 5 l -5,2.2 -1,3.6 v 6.5 l -2,2.1 -6,10.8 v 3.6 l 10,2.9 6,3.6 -1,2.8 4,0.8 7,-2 7,2.8 4,-2.8 3,-0.8 7,-4.4 h 2 7 l 7,-7.9 5,-6.5 9,-5 14,-8 5,-3.6 17,-12.9 9,-7.9 2,-4.4 6,-3.6 2,-5.7 4,-4.3 v -3.6 l -7,-8.7 -2,-7.2 13,-7.2 4,-1.4 15,-2.2 7,-0.7 6,2.9 6,-2.2 8,-2.1 h 5 l 7,-5.1 3,-3.6 5,-5.7 h 3 l 3,-3.6 -1,-4.4 -3,-5.7 3,-5.1 -5,-2.1 -4,-3.6 1,-4.3 3,-5.1 8,-6.5 2,-5.7 11,-16.6 9,-7.9 4,-2.9 3,0.7 20,-5 21,-5.8 4,-0.7 19,-4.3 19,-5.1 12,-3.6 1,-10.1 2,-3.6 5,1.5 1,-2.9 3,-2.9 5,2.2 -2,-5.8 6,-1.4 -3,-2.9 v -2.9 l 2,-5.7 4,-3.6 -2,-2.9 3,-4.3 1,-2.9 -3,-2.9 1,-5.8 -2,-1.4 v -6.5 l 4,-4.3 -1,-7.2 v -5 l 13,-37.5 h 5 l 2,7.2 5,1.5 8,-7.2 6,-1.5 v -3.56 h 3 l 9,3.56 6,3.6 15,46.1 3,10.8 6,1.4 6,-0.7 -1,5.1 3,2.8 v 5.1 l 6,5 v -2.9 h 5 l 10,13 -5,8.6 h -3 l -2,3.6 h -5 l 1,4.4 -9,2.8 -2,2.9 v 2.9 l -2,3.6 -2,-5 -6,1.4 5,4.3 -1,2.9 -5,1.4 -1,-5.7 -5,2.9 1,5 -6,-0.7 -2,1.5 -1,-8.7 -1,2.9 -4,2.8 3,3.7 -1,3.6 v 7.2 l -2,7.2 -6,-0.7 -1,1.4 -1,5.8 -6,1.4 v 5 l -5,-0.7 -4,2.9 h -3 l -2,4.3 3,4.3 -5,2.9 1,3.6 -3,5.8 -2,12.2 v 0.7 l -2,8.7 4,7.2 5,2.9 -7,4.3 -1,5 -2,6.5 1,-0.7 h 1 l 3,0.7 2,-0.7 2,0.7 6,5.8 v 4.3 l 5,1.4 2,4.3 6,2.2 4,-1.4 6,-3.6 3,3.6 -14,7.2 -1,2.8 -5,2.2 -1,-7.9 -6,5.7 -1,3.6 -6,3.6 -7,1.5 3,-7.9 -1,-1.5 h -5 l -1,-0.7 1,5 1,7.2 -1,5.1 -11,5 -4,0.7 -10,5.1 -1,-1.5 -5,3.6 -12,2.2 -5,6.5 -3,0.7 -6,6.5 -7,4.3 -2,5 v 3.6 l 2,0.8 v -4.4 l 4,-2.8 4,1.4 1,-4.3 6,0.7 5,-3.6 13,-4.3 6,-6.5 5,1.4 2,-1.4 3,2.2 4,-4.4 h 3 l -17,13.7 -21,14.4 -6,2.9 -4,1.4 -6,1.5 -5,1.9 -4,-1.2 v -3.6 0 m -1,0 -4,3.6 v 0.7 2.2 l -2,4.3 2,1.4 h 9 l 1,4.4 v 9.4 l 1,14.4 -2,10 -3,2.4 1,2.8 -3,4.4 -3,3.6 -3,5.6 -2,8.8 -4,4 -1,-2.8 1,-4.4 -1,-3.6 -9,-0.4 -10,-5.2 -4,-2 -2,-6 v -0.8 l 3,-8.4 h -1 l -1,1.2 -3,8.8 2,5.2 3,4 3,1.6 3,5.2 1,5.6 4,3.6 5,5.2 4,0.4 4,14 -1,15.6 -1,3.6 -2,6.4 h -3 l -3,8 v 7.2 l -1,5.2 -3,12 -4,4.4 -3,-4.8 v -14 l 2,-7.6 2,-3.2 2,-8.4 -8,0.8 2,-3.6 -4,-5.2 2,-2.8 h -4 l 1,-5.2 -4,7.2 -6,-4.4 -2,0.8 -5,-4.4 3,-2.8 -2,-3.6 4,-1.2 5,1.2 -8,-4.4 -4,-0.4 1,-3.6 3,-1.6 -2,-4.4 1,-6.4 -4,-1.6 1,-7.6 2,-3.2 4,-0.4 -1,-8 -3,1.2 v 4.4 l -5,6.4 -3,-2.8 1,2.4 -2,6.4 -3,-0.8 v 1.6 l 4,2 v 7.2 l 1,1.6 -2,8.4 1,1.6 3,8 5,4.8 -2,2.8 h 2 l 4,7.2 -5,2.4 -4,-3.6 -7,-0.8 -3,-3.6 -1,2.8 -5,-5.6 -6,4.8 -3,-4.8 3,-7.2 -3,-0.8 -1,7.2 2,6.4 1,0.8 8,-3.6 1,4.4 1,2 5,1.6 8,-0.8 3,4.4 11,3.6 -1,3.6 v 5.6 l -2,2.8 h -5 l -4,-5.6 h -2 l -9,-6.4 10,8.4 2,0.8 4,5.2 6,2 5,2.4 -1,5.6 -4,-2.8 -1,2 3,3.6 -4,2.4 4,2.8 4,1.2 1,4.4 -3,1.6 -9,-4.4 v -1.6 h -5 l -4,-2 -2,1.6 9,2 1,2.8 7,3.6 v 1.6 h 4 2 l 1,-3.6 4,0.8 6,-0.8 8,15.2 5,12 v 0.8 l -3,-8 -3,-2 v 10 l -1,2.8 -5,-2.8 h -2 l 5,2.8 -3,4.4 -3,-2 2,2 -6,3.6 -6,3.6 -4,-0.8 -2,-3.6 v -6.4 2 4.4 l 3,8 5,-0.8 5,-2.8 1,2 6,-4 4,-0.8 2,2.8 v 2.8 l 2,8 v 0 -9.2 l 3,-5.2 5,3.6 2,7.2 v 5.6 l -4,-0.4 -6,11.2 -5,3.2 -5,0.4 -6,-3.6 2,-4.8 -5,2.8 3,5.2 -1,2 5,2.8 -1,7.2 -5,5.2 -2,2 -6,-2.8 1,3.6 7,0.8 3,-2.4 5,-3.6 6,5.2 -3,5.2 -5,3.6 -9,1.2 -7,3.6 -6,7.2 -6,6 -6,7.2 -2,6.4 -3,10.8 -1,2 h -4 l -10,1.6 -5,3.6 -9,6.4 -4,8 -3,4.4 -2,7.6 v 6.8 l -3,2.8 -1,4.8 -7,0.8 v 5.2 l -5,4.8 -5,3.2 v 2.8 l -2,4.4 -5,1.2 -4,2.8 -3,3.2 -5,0.4 3,3.6 -1,3.2 -7,6.4 -2,2.8 -5,3.6 v 2 6 l -7,8.4 -1,0.8 3,3.6 -2,2.8 1,2.4 -4,6.4 1,3.6 1,2.8 -4,5.2 -1,4.4 2,4.8 v 8 l 2,8.8 4,10.8 8,19.2 2,4.4 6,9.2 6,10.8 12,14 7,7.6 3,5.2 -3,2.8 v 4.4 l 3,8.4 7,8.9 6,12 7,12 7,11 3,7 v 8 l 1,13 1,14 1,9 -4,3 -2,11 2,3 -2,4 v 1 l -1,1 5,-5 -3,11 -5,-4 -3,1 -5,3 h -6 l -1,2 -7,2 -4,-4 v -5 l -2,-5 -5,-6 -1,-3 -8,-3 -6,-3 -3,2 -6,-9 -2,-10 -8,-7 -5,-1 1,-10 v -4 l -3,-3 -2,2 2,5 -2,2 -3,-1 -5,-6 -7,-11 -6,-6 -3,-4 2,-2 3,-6 5,-8 -1,-3 -4,2 -2,-4 -4,-2 1,5 3,2 -1,6 -4,1 -6,-7 2,-5 -2,-7 2,-3 2,-8.9 v -4.8 l -1,-6.8 -4,-4.8 1,-3.6 -3,-3.6 -3,-6.4 -7,0.4 -6,-4 -3,-5.2 -7,-3.6 -2,-6.4 h -2 l -5,-3.6 -4,-6 -9,-3.6 -4,-1.2 h -2 l -7,0.8 -6,5.6 -4,2.8 -11,9.6 -10,1.2 -3,2.4 -3,0.4 v -4.8 l -4,-5.2 -5,-1.2 -3,-3.6 -16,-7.2 -8,-2.4 -8,-1.2 h -8 l -6,1.2 -5,0.8 -9,2.8 -5,0.8 -7,2.8 -6,1.6 -3,-1.6 -7,-4.4 -1,-10 -3,-1.2 -3,4.8 v 8 l -3,1.6 -6,-1.6 -2,1.6 -1,2 -8,-0.8 -3,0.8 -5,-2.8 -14,5.6 -3,-2 v 2.8 l -7,5.6 -3,1.6 -4,3.6 -4,2.8 v 2.8 l 6,2.4 h 4 v -5.2 l 3,-2 3,2.8 4,1.6 -6,12.8 -1,-0.8 h -1 l -4,1.6 v 3.6 l 8,5.6 10,1.6 8,6.4 -2,4.4 -10,2 -6,-6.4 -6,-2.8 -6,-1.6 1,-2.8 -8,-2 -2,3.6 v 0.4 0.8 l -3,3.6 2,2.4 -1,2 -5,3.6 -3,-8 -4,0.8 -5,-1.6 -4,6 -8,4.9 -4,-4.9 -3,0.8 -9,-3.2 2,-7.6 h -1 l -3,-2.4 -5,1.6 -7,-11.6 -8,0.8 v -4.4 h -5 l -5,4.4 -3,0.8 3,5.6 -8,2.8 -10,-2 -13,-5.2 -8,-2 -12,0.8 -9,1.2 -4,2.4 -10,1.2 -9,4.4 h -1 -4 -2 l -8,2 2,-4.8 v -5.2 h -4 l -5,3.6 -3,5.2 5,4.8 v 6 l -6,4 -4,0.9 1,5 -9,9 -5,2 -10,5 -12,6 -12,7 -2,3 -4,2 -12,9 1,-2 1,-3 5,-1 4,-4 5,-2 v -3 l -9,4 -1,-4 -3,-1 -3,1 3,4 v 2 2 l -5,4 -3,-3 -8,5 6,3 -3,5 h -1 l -11,1 -2,1 h 4 l 2,5 3,1 -3,6 -3,10 -4,-2 -3,4 h -5 l 7,2 4,-1 -1,17 -1,2 2,9 3,8 2,6 -1,2 2,6 4,2 -3,3 -5,3 v 3 l -6,-3 -5,-5 -8,-2 h -7 l -8,-1 -8.8,-7 -4.4,-1 -2.8,1 -6.4,-6 h -3.2 l -7.2,-2 v -3 l -2.8,-5 -3.6,-11 -6.4,-8 0.8,-7 -0.8,-3 -2,-4 1.2,-5 -0.8,-4 -3.6,-4 -4,-1 -6,-6 -0.8,-3 -3.6,-5 -2.8,-7 -4.8,-2 -3.2,-4 -1.2,-6 M 330.9,53.9 l -2.9,1.44 -5.7,-2.88 4.3,-2.16 4.3,3.6 m -8.6,2.88 -4.4,0.72 -0.7,-5.04 h 2.9 l 2.2,4.32 m 11.5,25.2 v 3.6 l -6.5,-4.32 1.4,-5.76 -3.6,-4.32 5.1,-1.44 -0.7,10.8 4.3,1.44 m 960.2,103.62 -5,4.3 -2,-2.1 2,-2.9 8,-4.3 9,-7.2 v 3.6 l -3,3.6 -9,5 m 170,65.6 -8,2.9 -4,-1.5 6,-4.3 1,-2.2 5,5.1 m 450,115.2 -3,0.7 -4,-0.7 4,-1.5 2,-3.6 3,2.9 -2,2.2 m -14,-0.7 -12,3.6 2,-0.8 3,-7.2 7,4.4 m -106,62.6 -4,2.9 1,-2.2 v -2.1 -1.5 l 3,-1.5 v 4.4 m 4,233.2 v 2.4 h -2 l -5,2.8 2,-1.6 3,-2.8 2,-0.8 m -1549.9,27.6 -4.3,0.8 -2.9,-6 5.8,0.8 1.4,4.4 m 10.1,-2.8 v 4 l -5.1,-2 -0.7,-3.6 5.8,1.6 m 28.8,52.4 6.5,10 -4.4,-1.2 -2.1,-8.8 m 33.1,154.8 0.7,5.6 3.6,-4 4.3,5.6 6.5,-2.8 2.9,2 0.7,2.8 2.2,3.2 12.2,-3.2 9.4,4.4 10.1,-0.8 4.3,3.2 7.9,-5.2 14.4,5.6 26.7,135.1 9.4,2 4.4,-3 0.4,3 14.4,10 0.8,4 6,-6 0.4,-5 5.2,-4 h 5.2 l 1.2,1 v 4 l 14.4,8 16,16 5.6,6 9.6,1 10,4 -0.8,3 3.6,6 -2.8,12 -4.4,-6 -3.6,2 -5.2,-4 -2.8,-1 1.6,3 4.4,8 -5.2,2 -1.6,2 -11.2,-7 -0.8,-8 -2.8,-5 -1.6,6 h -3.6 v -7 l -2,-2 -0.8,4 -5.2,-3 -15.6,-16 -3.6,-5 -28.4,-13 1.6,-3 0.8,-3 h -3.6 l -2.2,4 -9.4,-1 -12.2,-1 -10.1,6 2.2,-5 -13.7,-2 -4.3,-6 -9.4,-2 -5,1 0.7,5 5.7,4 -1.4,4 -3.6,3 h -6.5 l -8.7,8 -8.6,5 -4.3,-1 8.6,-8 -5,1 -2.9,-3 4.3,-6 v -7 l 6.5,-5 2.9,2 5.1,-1 -7.3,-4 h -3.6 l -6.5,5 -5,10 h -2.2 v 4 l -2.8,2 -0.8,2 -2.1,3 -2.9,2 -0.7,5 4.3,3 -3.6,6 -2.9,5 -5.7,2 -2.2,5 h -2.9 l -2.9,3 h -2.8 l -1.5,6 -4.3,4 -3.6,-1 -1.4,3 -5.1,2 -2.1,4 -3.6,4 -4.4,2 h -5.7 l -3.6,1 -0.7,3 h -5.1 -2.1 l -2.2,-3 -2.2,3 -2.8,4 h -4.4 l -4.3,3 -3.6,2 -5.7,1 -8.7,1 -0.7,-3 4.3,-5 10.8,-1 5.1,-1 9.3,-9 h 7.2 2.2 l 2.1,-2 5.8,-6 8.6,-3 h 2.9 l 2.9,-7 5,-4 h 0.8 l 1.4,-12 5,-8 -9.3,4 -3.6,-5 -2.2,7 -4.3,-7 -3.6,2 -2.9,-5 -5,2 -3.6,3 -2.9,3 -2.9,-3 2.2,-4 -0.7,-6 3.6,-3 -3.6,-10 -6.5,4 -7.2,-1 -5.8,-8 -1.4,-5 2.1,-5 -1.4,-1 -2.2,-3 -0.7,-4 -2.1,-3 2.8,-2 2.2,-5 6.5,-5 2.9,-8 2.8,-2 5.1,2 1.4,2 5.8,-4 h 7.2 l 5,-4 -0.7,-7.9 -3.6,-2.4 5,-3.6 -0.7,-4 -4.3,0.4 -4.3,3.2 -3.6,4.8 -1.5,-4.4 -5,-0.4 h -7.9 l -7.9,-4.4 -1.5,-6.4 3.6,-3.6 -10.1,-6 18.8,-8.4 8.6,-1.6 v 6.4 l 11.5,4.4 3.6,-5.2 -1.4,-6.4 2.9,-3.6 -14.4,-2.8 -0.8,-8.8 -12.2,-12.8 2.9,-1.6 0.7,-5.6 h 13 l 11.5,-16.4 5.7,-0.8 9.4,-6.4 h 6.5 l 7.9,-8 3.6,2.8 m 930.9,87.2 -6,3.6 -6,-3.6 4,-2.8 8,2.8 m -1038.9,8.4 5,3.6 5.1,-0.4 1.4,5.6 7.2,3.1 -8.6,3 -3.6,-6.1 -7.2,-2.8 0.7,-6 m 922.9,6.8 -12,8.1 9,-8.1 h 3 M 591.4,1026 h -10.8 l -5.6,-6 0.8,-4 7.2,-5 h 8 l 4.8,5 -4.4,10 m -27.2,0 -4.4,4 -2.8,-1 0.8,-4 4.8,-5 3.2,1 -1.6,5 m -366.5,12 -3.6,1 -3.6,-4 1.4,-3 3.6,3 2.2,3 m 464.5,12 -0.8,3 h -7.2 l -5.6,-3 -7.2,3 -5.2,-14 6.4,-2 4.4,-4 6.4,6 v 6 l 3.6,2 5.2,3 m -419.1,5 -5.1,2 -7.2,-9 10.1,-2 2.2,4 v 5 m 445.9,-1 1.2,3 9.6,1 -6,5 -19.6,-2 3.6,-6 9.6,1 1.6,-2 m 348,41 3,15 h -1 l -3,-11 1,-18 1,-3 4,-10 3,-3 2,-8 2,1 -6,10 -5,13 -1,14 m -333.2,-33 6,6 9.2,-2 10,6 v 4 l -3.6,4 -13.6,3 -2,-9 -3.6,-1 -6,-3 v -6 l 3.6,-2 m -9.2,13 -5.2,1 -4.8,-8 3.6,-2 8,5 -1.6,4 m 14.4,11 h -10.8 l 8,-7 2.8,7 m -363.7,13 -5,5 -2.9,3 h -2.2 l -1.4,-2 v 4 l -2.9,2 v 3 l -2.9,1 -2.9,-1 2.2,-4 -3.6,-10 5,-3 3.6,2 4.4,-5 -0.8,-5 5.8,-7 5,4 v 3 H 341 l -0.7,2 2.8,4 2.2,4 m -300.24,-1 h -4.32 l -5.04,-4 2.16,-3 4.32,2 2.88,5 m 721.54,17 v 4 h 3.6 l 0.8,4 6.4,4 -10,10 -5.2,2 -4.8,-1 -8,5 -7.2,11 -8.8,-8 -2,-20 -3.6,-8 8,-9 -3.2,-10 2.4,-4 27.2,14 4.4,6 m -720.82,-10 -2.16,2 -2.16,-3 5.04,-4 1.44,2 -2.16,3 m 27.36,24 h -3.6 l -1.44,-3 3.6,-2 2.16,1 v 2 l -0.72,2 m 18.72,5 -0.72,3 -4.32,-3 2.16,-1 2.16,-1 0.72,2 m -7.2,5 0.72,3 -2.16,-1 -3.6,-6 h 2.16 l 2.88,4 m 149.04,1 0.7,2 -1.4,2 -5.8,-1 -3.6,-1 -1.4,1 v 3 l -2.2,2 -2.9,2 -4.3,1 h -5 -2.9 l -2.9,2 -6.5,1 -2.1,1 -2.9,-1 6.5,-6 5.7,-4 2.9,1 3.6,2 h 2.9 l 0.7,-2 v -3 l 2.2,-2 h 2.1 l 1.5,1 h 3.6 l 1.4,-1 0.7,-3 h 2.2 2.9 l 2.1,3 h 2.2 m -114.5,5 5.1,2 h 2.8 2.9 v 4 l -3.6,1 h -7.2 l -4.3,-1 -6.5,-4 v -5 l 5.1,2 5.7,1 m 1536.8,9 -5,1 1,-4 12,-9 3,1 3,4 -8,4 -6,3 m -1500.8,2 -2.9,1 -5,-3 -5,-1 -7.2,-1 -0.8,-2 8,-2 2.8,-1 h 3.6 v 4 l 2.9,1 4.3,1 -0.7,3 m 33.1,-5 -1.4,3 h -2.2 l -3.6,-1 2.2,-3 4.3,-3 1.5,3 -0.8,1 m -8.6,3 h -2.2 l -0.7,-3 h 1.5 l 2.1,2 -0.7,1 m -16.6,0 -1.4,1 h -3.6 l 0.7,-3 1.5,-1 2.8,2 v 1 m 10.8,0 -1.4,1 h -1.4 l 0.7,-3 3.6,1 -1.5,1 M 468.6,206.5 v 0 -0.7 -1.5 -1.4 L 469,200 v -2.1 -2.9 -2.9 -2.9 -2.9 l 0.8,-2.8 0.8,-2.2 0.8,-2.9 v -3.6 l 0.8,-2.9 0.4,-2.8 0.8,-2.9 0.8,-3.6 0.8,-2.9 0.8,-2.9 0.4,-2.1 0.8,-2.9 0.8,-2.9 v -2.2 l 0.8,-2.8 0.8,-3.6 0.4,-2.9 0.8,-3.6 0.8,-2.9 0.8,-2.9 0.8,-3.6 0.4,-2.9 0.8,-2.8 0.8,-2.9 0.8,-2.9 0.8,-3.6 2.8,-11.48 0.8,-3.6 0.4,-2.88 0.8,-2.88 0.8,-2.88 0.8,-2.16 v -2.16 -0.72 0 m 27.2,5.76 -0.8,6.48 -1.2,4.32 -0.8,4.3 -0.8,3.6 -0.8,4.3 -0.4,4.3 -1.6,3.6 -0.8,4.3 v 5.1 3.6 l 1.6,4.3 1.2,3.6 1.6,3.6 0.8,3.6 v 3.6 3.6 2.2 l 0.8,2.1 1.2,2.2 2.4,2.1 2,2.2 2,2.9 1.6,2.9 1.6,3.6 1.2,2.8 1.6,2.9 1.2,2.9 2.4,3.6 2,2.9 2.8,2.9 3.2,2.1 2,2.2 1.6,2.9 -0.8,2.8 -1.6,3.6 -1.2,3.6 -1.6,3.6 -1.6,2.9 -0.4,2.9 v 2.9 l -0.8,3.6 -0.8,2.9 -1.6,2.9 -1.2,3.6 -0.8,2.9 -1.6,2.1 v 0.7 0.8 0 m 326.4,-102.3 -0.8,9.3 v 1.5 l -0.8,2.1 v 1.5 1.4 2.2 1.4 l -0.4,2.2 v 1.4 1.5 2.1 1.5 l -0.8,1.4 v 2.2 5 1.4 l -0.8,1.5 v 2.1 1.5 1.4 2.2 l -0.8,1.4 -0.8,13.7 v 1.4 l -0.4,2.2 v 1.4 1.5 0.7 0.7 0.7 0 M 279.1,145.3 h 0.7 v 0 h 0.7 v 0.7 h 0.7 l 0.7,1.5 v 0.7 l 0.8,0.7 v 1.4 l 0.7,0.8 h 0.7 l 0.7,0.7 h 1.5 0.7 1.4 0.7 l 1.5,0.7 h 0.7 l 0.7,0.7 0.7,0.7 0.8,1.5 0.7,0.7 0.7,0.7 v 0.7 l 0.7,1.5 0.7,0.7 v 1.4 0.8 1.4 0.7 1.5 0.7 0.7 1.4 0.8 1.4 l -0.7,0.7 v 1.5 0.7 0.7 1.4 l 0.7,0.8 v 1.4 l 0.8,1.4 m 775.9,95.1 v -2.9 -2.8 -2.9 l -1,-2.9 -1,-2.9 -1,-2.9 -1,-2.1 -2,-2.9 v -2.2 -2.1 -2.2 -2.9 -2.8 l -1,-3.6 v -2.9 l -1,-2.9 v -3.6 -2.9 -2.9 -2.9 -2.9 -2.8 -2.9 -2.2 l -1,-2.9 -1,-2.8 v -2.2 l -2,-2.9 -1,-2.9 v -2.8 l -1,-2.2 -1,-2.9 -1,-2.1 v -2.2 -2.2 -2.8 -2.2 -2.9 -2.9 -2.1 -2.2 -2.1 -2.9 -2.9 -2.9 l -1,-2.1 -1,-4.4 m -757.9,32.4 0.7,0.8 2.1,0.7 2.9,1.4 3.6,1.5 3.6,1.4 h 3.6 l 2.9,-0.7 3.6,-0.7 h 2.9 2.9 l 3.6,0.7 2.8,0.7 2.9,1.4 2.9,1.5 3.6,1.4 4.3,1.5 4.3,0.7 h 4.4 l 4.3,0.7 4.3,0.7 3.6,0.7 h 4.4 l 3.6,-0.7 h 3.6 3.6 l 3.6,-0.7 h 2.8 4.4 l 3.6,0.7 h 4.3 5 4.3 l 4.4,0.7 3.6,0.8 4.3,1.4 4.3,0.7 3.6,0.7 3.6,0.8 2.7,0.7 3.2,0.7 3.6,1.4 3.6,0.8 3.6,0.7 3.6,0.7 4,0.7 3.6,1.5 3.2,0.7 3.6,0.7 m 1404.4,90 v 0 h -1 l -1,-0.7 -1,-0.7 -2,-1.4 -1,-2.2 -2,-1.4 -1,-1.5 -1,-1.4 -1,-1.5 -2,-2.1 v -1.5 l -1,-2.1 v -2.2 l -1,-2.1 -1,-2.2 v -2.2 l -1,-2.1 -1,-2.2 v -2.1 l -1,-2.2 -1,-2.2 -1,-4.3 -1,-2.1 -1,-2.2 -1,-2.9 v -2.1 l -1,-2.2 v -2.2 l -1,-2.1 v -2.2 l -1,-2.1 -1,-2.2 v -2.2 l -1,-2.1 -2,-2.9 -1,-2.2 -2,-7.2 -3,-10.8 m -1408.6,167.1 5.1,-23.8 1.4,-4.3 0.7,-4.3 1.6,-4.3 0.4,-4.4 0.8,-4.3 1.6,-5 0.8,-4.3 1.2,-4.4 0.8,-5 0.8,-4.3 1.2,-3.6 0.8,-3.6 1.6,-2.9 1.2,-2.9 1.6,-2.9 0.8,-3.6 -0.8,-3.6 -1.6,-2.8 -1.2,-2.9 -0.8,-3.6 v -2.9 l 1.6,-2.9 2,-3.6 2.8,-2.9 2.4,-2.8 2.8,-2.2 2,-2.9 2.4,-2.1 1.2,-3.6 2.4,-2.9 2,-3.6 2,-3.6 2.4,-2.9 2,-3.6 2.4,-3.6 0.4,-3.6 -0.4,-2.9 -1.6,-3.6 -2,-2.9 -1.6,-2.2 -1.6,-2.8 -0.4,-1.5 v -0.7 0 m 386,1.4 -2.4,24.6 v 1.4 l -0.8,1.4 v 1.5 1.4 1.5 1.4 1.4 L 851,244 v 1.4 0.7 1.5 1.4 1.5 l -0.8,1.4 v 1.4 1.5 1.4 1.5 l -0.8,9.3 m 966.6,20.9 v 0 0 0 l 1,-0.7 v -0.7 -1.5 l 1,-2.1 v -1.5 l 1,-1.4 v -2.2 l 1,-1.4 v -2.2 -1.4 -2.2 l 1,-1.4 v -2.2 -1.4 -1.5 l -1,-2.1 v -1.5 l -1,-1.4 v -1.4 -1.5 l 1,-1.4 1,-1.5 1,-0.7 1,-0.7 1,-0.7 1,-1.5 2,-1.4 v -0.7 l 1,-1.5 1,-1.4 v -1.4 l 1,-1.5 v -1.4 l -1,-1.5 v -1.4 l -1,-1.4 -1,-1.5 v -1.4 -1.5 -1.4 -2.2 l 1,-1.4 v -1.5 l -1,-1.4 v -0.7 -0.8 -0.7 m -54,13.7 v 6.5 0.7 0 0 0 0.8 h 1 v 0 l 1,0.7 M 533.8,239.7 v 0 h 0.8 l 1.6,1.4 2,0.7 h 2.8 3.6 l 3.2,-1.4 3.6,-0.7 h 2 l 1.6,2.1 0.4,2.9 0.8,3.6 v 3.6 l 0.8,2.9 0.8,3.6 1.2,3.6 1.6,2.9 0.8,3.6 0.8,3.6 1.2,2.8 2.4,2.9 2,2.2 1.6,3.6 1.2,2.9 0.8,3.6 0.8,2.8 1.2,2.2 1.6,1.4 h 2 2.4 l 2.8,-0.7 2.8,0.7 h 2.8 3.2 l 2,-0.7 h 2.8 2.4 l 2.8,0.7 h 3.6 l 2,0.8 2.8,0.7 h 3.2 l 2,-0.7 2.8,-1.5 1.6,-1.4 2,-1.5 2.4,0.8 2,1.4 1.6,2.9 1.2,2.1 0.8,2.2 0.8,0.7 0.8,0.7 v 0 0 M 1208,241.8 v 0 0 h -1 l -1,0.7 -2,0.8 -2,1.4 -1,2.2 v 2.8 3.6 3.6 3.6 3.6 l -1,2.9 -1,3.6 -2,2.2 -4,2.1 -2,2.2 -2,2.9 -3,3.6 v 2.9 3.6 l 2,2.8 1,2.9 1,2.9 -1,3.6 v 3.6 4.3 l -1,5.1 1,4.3 v 4.3 l 1,3.6 3,2.9 4,2.1 3,2.2 4,2.9 4,2.1 3,2.2 4,2.9 2,2.9 2,2.8 3,2.2 4,2.9 3,2.1 3,2.2 2,3.6 2,3.6 1,4.3 v 3.6 l 1,2.2 1,1.4 v 0 0 M 1775,244 v 2.1 1.5 1.4 2.2 l 1,2.1 1,1.5 1,1.4 1,2.2 1,2.1 v 2.9 2.2 2.1 1.5 2.1 2.2 2.2 2.1 l 1,1.5 1,2.1 1,2.2 v 1.4 l 1,2.2 v 2.1 l 1,1.5 v 1.4 0.7 l 2,0.8 1,1.4 2,1.4 1,1.5 v 2.1 l 1,2.2 1,2.9 v 2.1 2.2 2.2 l 1,2.1 1,2.2 v 2.1 2.2 l 1,2.2 v 2.1 l 1,2.2 1,1.4 v 1.5 m -453,-27.4 v 0 0 l -2,-1.4 v -1.5 l -1,-1.4 -1,-2.2 v -2.1 -0.8 l -2,-0.7 -2,-0.7 v -1.4 -2.2 -2.2 -2.8 l -1,-2.9 -1,-2.2 -2,-1.4 -3,-2.2 -2,-1.4 -1,-2.2 -2,-1.4 -3,-1.5 -3,-0.7 -3,-0.7 -3,-0.7 h -3 -2 l -3,-0.7 -2,-0.8 -3,-0.7 -2,-1.4 -3,-0.7 -4,-0.8 -2,-0.7 -3,-0.7 -4,-0.7 -3,-0.7 -3,-0.8 h -3 l -3,-0.7 -3,-1.4 -2,-1.5 -2,-1.4 -1,-2.2 -2,-1.4 -2,-1.4 -1,-0.8 h -1 v 0 m -183,31.7 h -4 -4 -5 l -5,-0.7 h -5 -5 -6 -4 -5 -3 -6 l -4,-0.7 h -6 -5 -4 l -5,-0.7 h -5.2 -4.8 -6 l -4.8,-0.8 h -4.4 -5.2 l -4,-0.7 H 959 954.6 951 l -5.2,-0.7 H 941 l -6,-0.7 h -4.8 l -6,-0.7 h -4.8 -5.2 l -3.6,-0.8 h -4.4 -4.8 l -5.2,-0.7 -5.2,-0.7 h -4.8 -4.4 l -4.4,-0.7 h -4.8 l -5.2,-0.7 -5.2,-0.8 h -4.8 l -8,-0.7 m 0,0 v 0 0.7 0.8 l -0.8,0.7 v 1.4 0.7 0.8 1.4 l -1.2,21.6 v 0.7 l -0.8,0.7 v 1.5 0.7 1.4 0.8 1.4 l -1.6,5 m 228,-29.5 v -3.6 m 3,92.9 v -5.8 -2.8 -2.2 -2.9 -2.1 -2.9 -2.2 -2.9 -2.1 -2.2 -2.1 -2.2 -2.2 -2.8 -2.2 -2.9 -2.1 -2.2 -2.9 -2.1 -2.9 -2.2 -2.9 l -1,-2.1 -1,-1.5 -1,-1.4 -2,-1.4 -2,-2.2 -2,-1.4 v -2.2 l -1,-1.4 v -2.2 -2.2 l 1,-1.4 2,-1.4 2,-1.5 1,-2.1 1,-1.5 v -2.1 -0.8 -0.7 0 m -228,29.5 h -4.4 l -4.8,-0.7 -5.2,-0.7 H 825 l -5.2,-0.7 -4.8,-0.7 h -4.4 l -5.2,-0.8 -4.8,-0.7 h -6 l -6.4,-0.7 -5.6,-0.7 -6,-0.7 -4.8,-0.8 h -6 l -4.4,-0.7 -4.8,-0.7 -5.2,-0.7 -4.8,-0.7 -5.2,-0.8 -5.2,-0.7 -4.8,-0.7 h -5.2 l -4.8,-0.7 -6,-0.7 -4.8,-0.8 -6,-0.7 -6.4,-1.4 -5.6,-0.7 -6,-0.8 -5.6,-0.7 -6,-0.7 -5.6,-0.7 -6,-0.7 -4.8,-0.8 -6,-0.7 -4.8,-0.7 -5.2,-0.7 h -4.4 l -2.8,2.1 -2,3.6 -0.8,3.6 -0.8,4.4 -0.8,3.6 v 1.4 l -0.4,1.4 v 0 m 1192.4,20.9 -2,-2.1 -1,-0.8 -1,-0.7 v -0.7 -0.7 -0.7 -1.5 -0.7 -0.7 l 1,-1.5 v -0.7 -0.7 -0.7 -1.5 l -1,-0.7 v -0.7 -0.7 -1.5 -0.7 -0.7 -0.7 -0.7 -0.8 l -1,-1.4 v -0.7 -0.7 -0.8 l -2,-12.2 M 630.6,303.7 629,316 l -0.8,2.1 v 2.9 l -0.8,2.2 v 2.9 l -0.4,2.8 -0.8,2.2 v 2.9 l -0.8,2.1 v 2.9 l -0.8,2.9 v 2.2 l -0.8,2.8 v 2.2 l -0.4,2.9 -0.8,2.9 v 2.1 l -0.8,2.9 v 2.2 l -0.8,2.8 v 2.2 l -0.8,2.9 -0.4,2.9 v 2.1 l -0.8,2.9 v 2.9 l -0.8,2.9 -0.8,2.1 v 2.9 l -0.8,2.2 v 2.8 l -0.4,2.2 -1.6,9.4 -0.8,4.3 m 1209.2,-85 v 0 l 2,-0.7 h 2 l 1,-0.7 h 1 1 l 1,-0.7 h 2 l 1,-0.8 h 2 1 l 1,-0.7 h 1 l 2,-0.7 h 1 1 l 2,-0.7 7,-1.5 2,-0.7 h 1 l 2,-0.7 v 0 l 1,-0.7 1,-0.7 v -0.8 l 1,-0.7 v -1.4 l 1,-0.7 1,-0.8 1,-1.4 1,-0.7 1,-0.7 1,-0.8 1,-0.7 1,-0.7 h 1 l 1,-0.7 v 0 h 1 M 837.8,393 l 1.6,-12.9 v -2.2 -2.2 l 0.8,-1.4 v -2.2 -2.1 -1.5 l 0.4,-2.1 v -2.2 -2.1 -2.2 l 0.8,-2.2 v -2.1 -2.2 -2.1 l 0.8,-2.2 v -1.4 -2.2 -2.2 l 0.8,-2.1 v -1.5 -2.1 -2.2 -2.1 l 0.8,-2.2 v -2.2 -2.1 -2.2 l 0.4,-2.1 v -1.5 -2.1 l 0.8,-11.6 m -637.9,8 2.1,0.7 2.2,0.7 2.9,0.7 2.8,0.7 2.9,1.5 2.9,0.7 3.6,0.7 2.9,0.7 2.9,0.8 2.8,0.7 2.9,1.4 3.6,0.7 2.9,0.8 3.6,0.7 6.5,2.1 2.9,0.8 2.8,0.7 3.6,1.4 2.9,0.7 3.6,0.8 2.9,1.4 3.6,0.7 2.9,0.7 3.6,1.5 2.9,0.7 2.8,0.7 3.6,0.7 2.9,1.5 2.9,0.7 2.9,0.7 2.9,0.7 2.8,0.8 2.9,0.7 2.9,0.7 2.9,0.7 2.9,0.7 9.3,2.9 7.2,1.5 m 1462.8,-21.6 5,-0.8 1,-0.7 h 1 v 0 0 h 1 1 l 1,-0.7 v 0 h 1 v 0 h 1 1 l 10,-2.2 1,-0.7 h 1 m -25,36 v 0 0 0 0 -0.7 0 -0.7 -0.7 -1.5 -0.7 -13 -0.7 -0.7 -1.4 -0.8 -0.7 -0.7 -0.7 -7.9 m 70,25.2 -2,-2.2 -1,-0.7 v -0.7 0 -0.8 -0.7 0 -0.7 l -1,-0.7 v -0.7 0 l -1,-0.8 v 0 0 h -1 -1 v 0 h -1 -1 v 0 0 h -1 l -6,2.2 h -1 m 0,0 2,9.4 1,0.7 v 0.7 0.7 0.7 l 1,0.8 v 0.7 0.7 0.7 0.7 0.8 0.7 0.7 l 1,0.7 v 0.7 0.8 l 1,2.1 v 0.7 0.8 0.7 0.7 0.7 0.7 0.8 l -1,2.1 m -58,-18 8,-1.4 2,-0.7 h 1 1 l 1,-0.8 h 2 v 0 l 2,-0.7 h 1 l 2,-0.7 6,-1.4 h 1 l 2,-0.8 h 1 l 1,-0.7 h 2 v 0 l 2,-0.7 3,-0.7 h 1 1 l 1,-0.7 h 2 v -0.8 h 2 2 1 l 5,-1.4 m -1515.8,2.2 10.1,2.8 2.2,0.8 h 2.1 l 2.2,0.7 2.1,0.7 2.2,0.7 h 1.4 l 2.2,0.7 2.2,0.8 h 2.2 l 4.3,1.4 2.1,0.7 h 2.2 l 2.2,0.7 2.1,0.8 2.2,0.7 h 2.1 l 2.2,0.7 2.2,0.7 h 2.1 l 2.2,0.7 2.1,0.8 2.2,0.7 h 2.9 l 2.1,0.7 20.2,4.3 7.2,2.2 h 0.7 m -92.2,-22.3 -5.7,23.7 -0.8,2.9 -0.7,2.9 -0.7,2.9 -0.7,3.6 -0.7,2.8 -1.5,3.6 -0.7,2.9 -1.4,6.5 -0.8,2.9 -0.7,3.6 -0.7,2.9 -0.7,3.6 -1.5,2.8 -0.7,3.6 -0.7,2.9 -2.9,10.1 -0.7,2.9 -0.7,3.5 -0.7,3.2 -0.8,2.8 -0.7,3.6 -0.7,2.8 -0.7,2.8 -0.7,2.8 -1.5,2.4 -0.7,2.8 -0.7,2.8 v 2.8 l -0.7,2.4 v 2.8 1.6 l 0.7,2 v 0.8 h 0.7 v 0.8 M 1872,357 l -4,-1.4 v -0.7 m -65,51.8 v -1.4 l -1,-0.8 -1,-0.7 v -0.7 -1.4 l 1,-0.8 1,-0.7 v -1.4 l 2,-0.7 v -0.8 l 1,-0.7 v -1.4 l -1,-0.7 v -1.5 -0.7 l -1,-0.7 v -1.5 l -1,-0.7 v -1.4 -0.7 -1.5 -1.4 l -1,-0.7 v -1.5 -0.7 -1.4 l -1,-1.5 v -0.7 -1.4 -1.5 -1.4 -0.7 l -2,-8 -1,-4.3 m -722,21.6 V 367.1 M 520.2,393 h -0.8 -1.2 l -2.4,-0.7 -2,-0.7 h -2 l -2.4,-0.7 -2.8,-0.8 h -2 l -7.2,-1.4 -2.4,-0.7 h -2 l -2.8,-0.7 -2.4,-0.8 -2,-0.7 h -2.4 l -2.8,-0.7 -9.2,-2.2 H 469 l -2,-0.7 -2,-0.7 h -3.2 l -2,-0.7 -2,-0.7 h -2.4 l -18,-4.4 -2,-0.7 h -2.2 l -2.2,-0.7 h -1.4 l -1.5,-0.7 h -0.7 v 0 0 0 M 1754,390.9 v 0 -0.8 l -1,-1.4 -2,-2.9 -1,-2.1 -3,-2.2 -3,-2.2 -3,-1.4 h -2 -4 l -4,0.7 -4,0.7 -4,0.8 -3,0.7 -3,0.7 -4,0.7 -3,0.7 -5,0.8 -3,0.7 -4,0.7 -3,0.7 -4,0.7 -3,0.8 -3,0.7 -4,0.7 -4,0.7 -4,0.7 -4,0.8 -4,1.4 -4,0.7 h -4 l -3,0.7 -3,0.8 -4,0.7 -4,0.7 -4,0.7 -3,0.7 -5,0.8 -3,0.7 -5,0.7 -4,0.7 -4,0.7 -4,0.8 h -4 l -2,-1.5 -2,-2.9 -1,-2.8 v -1.5 -1.4 m -363,-13 1,3.6 m -164,0 h 1 2 4 3 4 3 4 4 3 4 3 4 3 3 4 4 3 4 3 4 l 4,-0.7 h 4 4 3 4 3 4 4 3 l 4,-0.7 h 2 3 4 3 4 l 3,-0.7 h 4 4 3 4 l 3,-0.8 h 4 4 4 l 4,-0.7 h 2 2 2 m 1,3.6 v 0 0.7 0.8 0.7 0.7 l 1,1.4 1,0.8 1,0.7 v 0.7 0.7 1.5 0.7 l -1,1.4 -1,0.7 v 1.5 0.7 1.4 1.5 l 1,1.4 v 0.7 l 1,1.5 v 1.4 0.7 l 1,2.9 1,0.7 v 1.5 0.7 l 1,0.7 1,0.7 1,0.8 1,0.7 h 2 v 0.7 h 2 v 0.7 h 2 v 0.7 h 1 l 1,1.5 1,0.7 v 1.4 l 1,1.5 m -183,5.7 v -0.7 h -1 v -1.4 -0.7 -0.8 l -1,-1.4 v -0.7 l -1,-0.7 v -1.5 l -1,-0.7 -1,-0.7 v -1.5 -0.7 -1.4 -0.7 l 1,-1.5 1,-1.4 v -1.5 -0.7 -1.4 l 1,-1.5 v -0.7 -1.4 l 1,-0.7 v -1.5 -0.7 -0.7 -1.5 -1.4 -0.7 l -1,-1.5 V 393 l -1,-0.7 v -1.4 -0.8 -1.4 -1.4 -0.8 -1.4 -0.7 -1.5 0 -0.7 h 1 1 1 m 691,16.6 -1,-1.5 v 0 l -1,-0.7 v 0 0 0 h -1 v 0 h -2 v 0 0 h -1 v 0 l -1,-0.7 v 0 h -1 l -4,-3.6 -1,-1.4 m -1140.2,18.7 -0.8,-0.7 -4.8,-0.8 h -2.8 l -2.4,-0.7 h -2 l -2.8,-0.7 h -2.4 l -2,-0.7 h -2.4 l -2.8,-0.7 h -2 l -2.4,-0.8 -2,-0.7 h -2 l -2.4,-0.7 h -2 l -2.8,-0.7 h -2.4 l -9.2,-2.2 h -2.8 l -2.4,-0.7 h -2 l -2.4,-0.7 H 549 l -2,-0.7 -2.4,-0.8 -12,-1.4 -2.4,-0.7 -2,-0.7 h -2 l -2.4,-0.8 h -2 L 521,393 h -0.8 v 0 m 0,0 -2.8,13.7 -1.6,10.1 -1.2,5 -0.8,5.8 -1.6,5 -0.4,5.8 -1.6,5.1 -0.8,5.2 -0.8,5.6 -1.2,5.2 -0.8,5.6 -1.6,5.2 -0.4,4.8 -0.8,4.4 -1.6,5.2 -0.8,4.8 -0.4,5.2 -1.6,4.8 -0.8,6 -1.2,4.8 -0.8,5.2 -1.6,5.6 -0.8,5.2 -0.4,5.2 -1.6,4.8 -0.8,4.4 -0.8,4.4 -0.4,4.8 -0.8,4.4 -1.6,4.4 -0.8,5.2 -0.4,4 -0.8,5.2 -1.6,4.4 -0.8,4.8 -0.4,5.2 -1.6,5.2 -0.8,4.8 -1.2,8 M 837.8,393 l 3.6,0.7 h 3.6 l 3.6,0.8 h 4.4 4.4 l 3.6,0.7 h 4.4 l 3.6,0.7 h 3.6 3.6 l 4,0.7 h 4.4 l 4.4,0.7 h 4.4 l 4.4,0.8 h 4 4.4 l 4.4,0.7 h 5.2 4 l 4.4,0.7 h 4.4 l 5.2,0.7 h 4 4.4 5.2 l 4.4,0.7 h 4 4.4 l 4.4,0.8 h 4.4 4.4 4 l 4.4,0.7 h 4.4 4.4 4.8 4.4 l 4.2,0.7 5,0.7 3,0.7 4,2.2 3,1.4 2,1.5 1,0.7 v 0 0 m -189.8,52 0.8,-2.4 v -1.2 -1.6 -1.2 -1.6 -1.6 l 0.4,-1.2 v -1.6 -1.2 -1.6 -2 l 0.8,-1.6 v -1.6 -1.2 -2.3 -1.5 l 0.8,-1.4 v -2.2 -1.4 -1.4 l 1.6,-14.4 v -1.5 -2.1 -1.5 l 0.4,-2.1 v -1.5 -1.4 -2.2 l 0.8,-7.9 V 393 m 929.2,5.8 10,2.9 v 0.7 h 1 1 l 1,0.7 v 0 h 1 l 1,0.7 h 1 l 1,0.7 h 1 v 0 l 1,0.8 h 1 v 0 l 6,2.1 h 1 1 v 0.7 l 1,0.8 v 0.7 0.7 0.7 0.7 m -37,57.8 h 1 l 1,-0.8 1,-1.6 3,-1.2 1,-1.6 1,-2 2,-2.4 v -1.2 l 2,-2.4 2,-1.2 1,-1.6 1,-1.2 1,-1.6 v -1.6 l -1,-1.2 -1,-1.6 -1,-0.8 -3,-1.2 -2,-1.6 -1,-1.2 -2,-2.4 -1,-1.4 -2,-1.5 -1,-1.4 -2,-1.5 v -1.4 -2.2 -2.1 -1.5 -2.1 -1.5 -2.1 -1.5 -2.1 -1.5 l 1,-2.1 1,-1.5 1,-1.4 v -2.2 l 1,-1.4 1,-2.2 1,-2.1 1,-1.5 1,-1.4 v -0.7 0 m -187,9.3 1,3.6 v 0.8 0.7 0 0.7 0.7 0 0.7 l 2,11.6 v 0 0.7 0.7 0 0.7 0 0 0 m -561,-18.7 h 1 l 1,0.7 v 0.7 l 2,0.8 1,0.7 h 1 l 1,-0.7 1,-0.8 1,-0.7 1,-0.7 1,-0.7 h 2 2 1 1 l 2,0.7 h 1 l 3,-0.7 h 1 1 1 l 1,0.7 h 2 l 1,0.7 1,0.7 2,0.8 1,0.7 1,0.7 2,0.7 h 1 l 2,0.7 1,0.8 1,0.7 1,0.7 1,1.4 1,0.8 1,1.4 1,1.4 1,0.8 1,0.7 2,0.7 1,0.7 h 1 l 1,0.7 m -462.2,-16.5 -1.2,8.6 v 2.9 l -0.8,2.2 -0.8,2.8 v 2.2 l -0.8,2.2 v 2.8 l -0.8,2.2 v 2.2 l -0.4,3 v 2 l -0.8,2.8 v 2.4 2 l 1.2,1.6 1.6,1.2 2.8,0.8 h 2.8 l 13.2,2.4 2.8,0.4 h 2 l 3.2,0.8 h 2 l 2,0.8 h 2.4 2.8 l 2,0.8 19.6,2.8 h 2 M 1796,411.7 v 0.8 0 0 0.7 0 0 0.7 0 l -1,2.2 v 0.7 0 0 0.7 0 0 0.7 2.9 m -536,-0.7 h 1 1 2 2 l 2,-0.7 h 2 2 2 3 2 l 2,-0.8 h 2 1 3 2 2 2 l 2,-0.7 h 3 2 2 2 2 l 2,-0.7 h 2 3 1 2 2 l 2,-0.7 h 2 2 2 l 2,-0.7 h 3 2 1 2 l 2,-0.8 h 2 2 2 l 5,-0.7 m -109,99.3 v 0 -0.4 h 1 v -0.8 -2.4 -2 l 2,-2 1,-2.4 2,-2 1,-1.6 1,-2 2,-2.4 1,-2.8 1,-2.8 1,-2 1,-3.2 -1,-2 -1,-2 -1,-2.4 -1,-2 -1,-1.6 v -2 -1.6 l 1,-1.2 2,-1.6 2,-1.6 2,-0.4 3,-1.6 3,-0.8 2,-0.8 3,-1.2 2,-0.8 1,-1.6 2,-2 v -2.8 l 2,-2.8 1,-3.2 1,-2.8 1,-2.8 v -2 l -1,-3.1 -2,-2.2 -2,-2.1 -2,-1.5 -1,-2.1 -2,-1.5 -1,-2.1 -2,-2.2 -1,-1.4 -1,-1.5 -1,-0.7 -1,-0.7 m -161,87.9 -1,-1.6 -1,-1.2 v -1.6 l -1,-1.2 v -2.4 l 1,-2 v -2.4 -2 l -1,-2 v -3.2 l -1,-2 -1,-2 v -1.6 -2 -2.4 l -1,-2 v -2.4 l -1,-1.2 v -2.4 -1.2 l -2,-0.8 v -1.6 l -1,-1.2 -1,-1.6 v -2 -2.4 -1.2 -2.4 -1.2 l -1,-1.6 v -2 l -1,-1.6 v -1.2 l -2,-1.6 v -1.6 l -1,-2 -1,-1.6 v -2 l -1,-1.5 -1,-2.2 -1,-1.4 v -2.2 -1.4 -2.2 l -1,-1.4 -1,-0.7 v -0.8 0 0 m 507,2.9 2,12.5 v 0.4 l 1,0.8 v 0.8 0.8 0.8 0.4 l 1,1.6 v 0.8 3.6 0.8 0.4 0.8 0.8 0.8 l 1,0.8 v 0.4 1.6 0.8 0.8 l 1,4 v 1.6 m -100,-32.5 -6,0.7 h -1 l -1,0.8 h -1 -1 -1 -1 l -1,0.7 h -1 -1 -1 l -1,0.7 -8,0.7 -1,0.7 h -1 -1 -1 l -1,0.8 h -1 -2 v 0 l -7,1.4 h -3 m -64,4.4 5,-0.8 h 1 1 2 1 l 3,-0.8 h 1 1 2 l 1,-0.4 h 2 2 1 l 2,-0.8 h 2 2 2 l 1,-0.8 h 1 2 1 2 l 2,-0.8 h 1 2 2 l 1,-0.7 h 2 2 1 l 2,-0.7 h 1 2 l 2,-0.8 h 1 2 1 l 1,0.8 1,0.7 v 0.7 0 0 m 0,0 1,6.4 1,0.8 m 0,0 v 0 0.8 1.6 1.2 l 1,2.4 v 2 2 1.6 2 1.6 l 1,2.8 v 2.4 2 l 1,2.8 v 2.4 2.8 2.8 2 l 1,3.2 v 2 l 1,2 v 2.4 2 2.8 2.4 2 l 1,2.4 v 2.8 2.8 l 1,2 v 2.4 l 1,2 v 2.8 2.4 2.8 2 2.4 l 1,2.8 v 2 2.4 l 1,2 v 2.4 2 l 1,2 v 2.4 2 1.6 2 m -99,-102.8 1,2 v 2.4 2 2 3.2 2 2.8 l 1,2.8 v 3.2 2.8 l 1,2.8 v 3.6 2.8 2.8 3.2 l 1,2.8 v 2.8 2 l 1,2.4 v 2 2.4 2.8 l 1,2 v 2.8 3.2 2.8 2.8 2.8 l 1,2.8 v 3.2 2.8 l 1,2.8 v 3.6 2.8 l 1,2.4 v 2.8 2.8 2 l -1,2.4 -1,2 v 2.8 l 1,2.4 1,2.8 v 2 l 1,3.2 1,1.2 v 1.6 0.8 0 0 m -700.4,-109.6 10.4,1.6 12,1.2 3.6,0.8 4.4,0.8 h 3.6 l 4.4,0.8 3.6,0.4 h 4.4 l 3.6,0.8 3.6,0.8 h 3.6 l 4.4,0.8 h 3.6 l 3.6,0.8 3.6,0.4 h 3.6 l 2.8,0.8 h 3.6 l 3.6,0.8 3.6,0.8 h 3.6 l 4.4,0.8 h 3.6 l 3.6,0.4 h 3.6 l 3.6,0.8 h 3.6 l 3.6,0.8 h 3.6 l 3.6,0.8 h 3.6 l 4,0.8 h 3.6 l 4.4,0.4 h 3.6 l 14.4,1.6 m -180.8,133.2 0.8,-5.6 0.8,-3.2 0.8,-3.6 v -3.6 l 0.4,-3.6 0.8,-3.6 0.8,-4 v -3.6 l 0.8,-3.6 v -3.6 l 0.8,-3.6 v -4.4 l 0.4,-3.6 0.8,-3.6 0.8,-3.6 1.6,-11.6 0.4,-3.6 v -3.6 l 0.8,-3.6 0.8,-2.8 v -3.6 l 0.8,-2.8 0.8,-3.6 v -3.2 l 0.4,-3.6 0.8,-3.6 v -3.6 l 0.8,-3.6 0.8,-2.8 v -3.6 l 0.8,-3.6 0.4,-3.6 v -4.4 l 0.8,-3.6 0.8,-3.6 0.8,-3.6 v -3.6 l 0.8,-3.6 0.4,-2.8 v -2.8 m 160,18 1.6,-16 v -1.2 m 761.8,31.6 v 0 0 -0.8 -0.8 -0.4 -0.8 l -1,-0.8 v -0.8 -1.2 -0.8 -0.8 -0.8 -0.8 -0.4 -0.8 -0.8 l -1,-5.2 v -0.4 l -1,-0.8 v -0.8 -0.8 -0.8 -0.4 -0.8 l -1,-0.8 v -0.8 -0.8 -0.4 0 l -1,-5.2 m 0,0 v 0 0.8 l -1,0.8 -1,1.2 v 1.6 2.8 2 l 1,3.6 v 3.2 l -1,2.8 v 2 2.8 3.2 l -1,2.8 v 3.6 l -1,3.6 v 2.8 2.8 l -2,2.8 -2,3.2 -2,3.6 -2,2 -2,2 -4,1.6 -2,1.6 -2,0.4 -3,1.6 -2,2 -1,2.4 -1,2.8 v 2.8 2.4 l -1,2.8 v 2 l -2,1.6 h -1 l -2,-0.8 h -1 l -2,0.8 -1,1.2 -1,3.2 -1,2 v 2.8 2.8 3.2 l -1,2 -1,1.6 -1,2 -2,2 -2,1.6 -2,0.8 h -2 v 0 h -1 v 0 m 212,-95.2 2,-2.8 v 0 -0.8 0 h 1 v -0.8 0 0 l 1,-0.4 1,-0.8 v 0 0 h 1 v 0 0 h 1 v 0 0 h 4 v 0 m 0,0 v 0 m 16,56.8 -6,0.8 -2,0.8 h -2 -1 l -1,-0.8 -1,-0.8 v -1.6 -1.2 l -1,-1.6 v -2 l -1,-1.6 -1,-1.2 v -1.6 -2 l -1,-1.6 v -1.6 l -1,-1.2 v -2.4 -1.2 l -1,-1.6 v -2 l -1,-1.6 v -1.2 -1.6 l -1,-1.6 v -1.2 l -1,-0.8 v -1.6 l -1,-1.2 v -2.4 l -1,-1.2 v -1.6 -1.2 l -3,-9.6 m -118,24 v 0 0 h 1 l 1,-0.8 h 2 l 3,-0.8 3,-0.8 3,-0.8 h 3 l 2,-0.4 2,-0.8 h 3 l 2,-0.8 h 3 l 3,-0.8 2,-0.8 h 2 l 3,-0.4 2,-0.8 h 3 l 2,-0.8 3,-0.8 3,-0.8 h 3 l 3,-0.4 3,-0.8 h 3 l 2,-0.8 1,-0.8 h 2 l 3,-0.8 2,-0.4 h 3 l 2,-0.8 h 3 l 2,-0.8 2,-0.8 h 3 l 2,-0.8 2,-0.4 3,-0.8 h 2 l 3,-0.8 2,-0.8 h 2 l 3,-0.8 2,-0.4 h 2 l 3,-0.8 2,-0.8 2,-0.8 m -917.4,4.4 6.4,0.8 h 3.2 2 2.8 l 2.4,0.8 h 2 2 2.4 l 2.8,0.4 h 2 3.2 l 4.8,0.8 h 2.8 2.4 2.8 l 2,0.8 h 2.4 2 2.4 l 2.8,0.8 h 2.8 2 l 2.4,0.8 0.8,1.2 0.4,2.4 v 2.8 2.8 2 l -0.4,3.2 v 2.8 2 2.8 l -0.8,2.4 v 2 2.8 2.4 2 l -0.8,2.8 v 6 m -586.9,-46 0.7,0.4 1.5,2.4 2.1,2.8 2.2,4.4 2.9,4.4 2.8,4 2.9,3.6 2.2,4.4 2.9,3.6 2.8,4.4 2.9,4.4 2.9,4.8 3.6,4.4 2.9,4.4 2.9,5.2 2.8,4 3.6,5.2 2.9,4.4 2.9,4.4 3.6,4.8 3.6,5.2 2.9,4.8 3.6,6 3.6,4.8 3.6,5.2 2.9,5.2 3.6,4.8 3.6,6 3.6,4.8 3.6,5.2 3.6,4.8 2.9,6 3.6,4.8 3.6,5.2 2.9,4.4 3.6,4.8 2.8,4.4 2.9,5.2 3.6,4.8 3.6,5.2 14.4,21.6 0.8,1.6 M 1690,505.5 l -1,-0.8 -1,-1.6 -1,-1.2 -1,-2.4 -1,-2 -2,-1.6 -1,-1.2 h -2 l -2,-0.8 h -1 l -2,-0.8 h -2 l -1,0.8 -3,0.8 -1,0.8 -1,1.2 -2,1.6 -1,1.2 -2,1.6 -2,0.8 h -1 -2 l -3,-0.8 -1,0.8 -2,0.8 -1,1.2 -1,1.6 -2,1.2 -1,0.8 -2,0.8 -1,1.6 -2,1.2 -1,2.4 -1,1.2 -2,2.4 -1,1.2 -2,0.8 -1,-0.8 v -1.2 l -1,-2.4 v -2.8 l -2,-12.8 m 0,0 -6,0.4 h -1 l -1,0.8 h -1 -1 -1 l -1,0.8 h -1 -2 v 0 l -1,0.8 h -1 -2 l -8,1.2 h -1 l -2,0.8 v 0 h -2 -1 v 0 l -1,-0.8 -1,-0.4 v -0.8 -0.8 l -1,-7.2 m -31,111.6 v 0 0 0.8 l 1,1.2 2,2.4 2,2.8 3,2 4,0.8 4,-0.8 4,-0.4 4,-1.6 4,-0.8 4,-0.8 3,-2 2,-2 2,-2.4 3,-0.8 3,-1.2 4,-1.6 3,-2 2,-2.4 1,-2.8 1,-2.8 v -3.6 l 2,-4.4 1,-4.4 2,-4 2,-5.2 2,-4.4 2,-3.6 1,-4.4 2,-3.6 2,-2 4,-0.8 2,0.8 4,-1.6 2,-2.8 2,-3.6 1,-3.6 2,-3.6 2,-2 3,-2.8 4,-3.2 2,-4 2,-3.2 2,-3.6 v -3.6 l 2,-3.6 v -2.8 l 3,-1.2 3,0.4 2,1.6 2,0.8 v 0.8 0 m -440,4 -2,-1.2 h -1 v 0 0 h -1 v -0.8 0 0 l -6,-6.4 v -0.8 m 0,0 v 0 h -1 -2 -2 -3 -3 l -3,0.8 h -3 -3 -2 l -3,0.8 h -3 -3 -3 l -3,0.4 h -3 -3 -3 -3 l -3,0.8 h -4 -2 -3 -4 -3 l -3,0.8 h -3 -2 -3 -3 -3 -3 -3 -2 -3 -3 -3 -3 -3 -3 -4 -3 -2 -3 -3 -3 -2 m 614,9.2 h -1 l -1,-0.4 h -1 -1 v -0.8 h -1 l -1,-0.8 -1,-0.8 v 0 -0.8 h -1 -1 v 0 h -1 -1 v 0 l -1,-0.4 h -1 l -1,-0.8 v -0.8 h -1 v -0.8 -0.8 l 1,-0.4 v -0.8 -0.8 -0.8 h -1 v -0.8 -0.4 h -1 l -1,-0.8 v 0 l -1,-0.8 h -1 v 0 h -1 -1 -1 v 0.8 0 0 0 m -11,4.4 7,3.6 h 1 v 0 0 0 0 -0.8 h 1 l 1,-6 1,-1.2 m -577,28 -2,-0.8 v -0.8 h -1 l -1,-0.4 v -0.8 -0.8 -0.8 -0.8 -0.4 -0.8 0 l -1,-0.8 -1,-2 h -1 v -0.8 l -1,-0.8 v -0.8 h -1 v -0.8 l -1,-0.4 v 0 -0.8 l -1,-0.8 v -0.8 -0.8 l -1,-4 -1,-0.8 v -0.8 -0.8 l -1,-0.8 v -0.4 0 l -1,-0.8 v -0.8 m 226,147.6 v 0 h -1 v -0.8 l -2,-0.8 -2,-0.4 -2,-0.8 -2,-2.4 -2,-3.6 -1,-3.6 v -3.6 l -1,-2.8 -1,-2.8 -1,-2.8 -1,-2.8 -2,-3.2 -2,-2.8 -3,-2 -2,-1.6 -3,-1.2 -3,-1.6 -4,-2 -2,-2.4 -4,-2.8 -2,-2.8 -1,-2.8 v -3.6 l 1,-4.4 v -3.6 l 2,-3.6 v -4.4 l 1,-2.8 -1,-2.8 -2,-1.6 -4,-1.6 -4,-0.4 -3,-0.8 -2,-2.4 -3,-2.8 -1,-4.4 -2,-3.6 -3,-3.6 -4,-2.8 -3,-2.8 -3,-3.6 -3,-2.8 -3,-3.6 -2,-3.6 -1,-3.6 -2,-3.6 -1,-3.6 v -3.6 -2.8 l 1,-3.2 v -2 l 1,-1.6 v 0 0 m 473,3.6 3,-1.2 v 0 0 0 h 1 v 0 0 h 1 l 2,1.2 v 0 0 0.8 0 0 0.8 0 l -3,3.6 v 0.8 m 0,0 -1,-1.6 v 0 -0.8 0 0 0 0 0 l -2,-2.8 -1,-0.8 m 2,13.2 1,-2.8 v 0 0 -0.8 0 0 0 -0.8 l 1,-2 v 0 0 -0.8 0 0 0 0 0 m 68,0.8 -9,2 v 0 m -882.4,0.8 4.4,0.8 h 3.6 4.8 l 4.4,0.4 h 3.6 2.8 l 3.6,0.8 h 3.6 4.4 3.6 l 3.6,0.8 h 3.6 3.6 l 3.6,0.8 h 4.4 2.8 3.6 3.6 l 4.4,0.8 h 3.6 3.6 3.6 3.6 l 4.4,0.4 h 4.4 4 3.6 3.6 4 l 3,0.8 h 4 4 4 3 4 4 5 l 4,0.8 h 5 5 5 4 5 3 5 3 4 4 3 3 2 1 v 0 m -197.4,-6.4 -0.8,9.2 v 2.8 2.4 l -0.8,2.8 v 1.6 2 2 3.2 2.8 l -0.4,2 v 2.8 2.4 2.8 l -0.8,2 v 2.4 2 2.4 2.8 l -0.8,2 v 2.8 2.4 2 2.4 2 l -0.8,2 v 3.2 2 2 2.4 l -0.8,2 v 2.4 2.8 2.8 l -0.4,2 v 3.2 2.8 2.8 2 l -0.8,3.2 v 2 2.8 2.4 2 l -0.8,2 M 1113,533.5 v 0 0.8 l 1,0.8 2,1.2 3,1.6 2,0.8 3,0.4 1,1.6 v 2 l -1,3.2 -2,2.8 -1,2.8 v 2.8 l 2,2.8 2,3.2 1,2 2,2 1,2.4 3,1.2 2,1.6 1,2 1,2.4 v 2 2.8 l 1,3.2 v 2.8 2.8 2.8 3.6 3.6 3.6 3.6 3.6 3.6 2.8 3.2 3.6 2.8 3.6 3.6 2.8 2.8 2.8 3.2 2.8 2 3.6 2.8 3.6 3.2 1.2 0.8 0 0 m -47,-129.6 h 5 1 v 0 h 1 v 0 h 1 1 v 0 h 11 v 0 h 1 v 0 h 1 v 0 h 1 v 0 0 m 669,10 -11,3.6 h -1 v 0 h -1 v 0.8 0 0 0.8 0 m -308,0 v 0 l 1,0.8 1,0.4 h 2 l 2,0.8 h 2 2 l 2,0.8 2,0.8 2,1.2 1,1.6 1,2 1,1.6 1,1.6 2,0.4 2,0.8 h 2 l 2,0.8 h 3 l 2,0.8 2,1.2 1,0.8 h 2 l 2,-0.8 2,-0.4 h 2 2 l 3,0.4 h 2 2 l 2,-0.4 1,-0.8 2,-1.6 1,-1.2 2,-0.8 1,-0.8 2,0.8 v 1.2 l 2,1.6 1,1.6 1,1.2 2,0.8 2,1.6 1,0.4 1,1.6 1,0.8 v 0 0 m -77,-19.6 2,-2 v 0 m -2,2 v 0 0 0.8 1.6 2.8 2 2.4 2 2 l -3,1.6 -3,1.6 -3,0.4 -4,0.8 -2,1.6 -2,1.2 -1,2.4 v 2 l -1,2.8 -2,2.4 -1,2 -2,2.8 -2,2.4 -2,2.8 -2,2.8 -1,2.8 -1,2.4 -2,2 -2,0.8 h -2 l -3,-0.8 -2,-1.2 -2,-0.8 h -2 l -2,2 -1,2.4 -2,2.8 -2,2 h -2 l -3,-0.8 h -3 l -2,0.8 -2,2.4 -2,1.2 -3,0.8 h -2 l -4,-0.8 h -3 -3 l -3,0.8 -4,0.8 h -3 l -2,0.8 -2,1.2 -1,0.8 -2,0.8 v 0.8 0 0 m 177,-47.6 1,3.6 v 0.8 1.2 1.6 1.2 0.8 1.6 0.8 l 1,1.2 v 0.8 l 1,0.8 v 0.8 l 1,0.4 1,0.8 v 1.6 l 1,0.8 v 0.4 l 1,1.6 v 0.8 l 2,0.8 1,0.4 v 1.6 l 1,0.8 1,0.8 1,0.4 v 1.6 l 1,0.8 1,0.8 v 0.4 l 1,1.6 h 1 l 1,0.8 1,0.8 2,0.4 v 0.8 h 1 l 1,0.8 h 1 1 1 v 0 h 1 m -192,-34.4 v 0 0 0.4 l 1,1.6 v 1.6 1.2 l -1,1.6 v 1.2 0.8 l -1,1.6 -1,0.8 v 1.2 l -1,0.8 -1,1.6 v 1.2 l -1,1.6 v 1.2 1.6 l -1,1.6 -1,0.4 -1,1.6 v 0.8 l -1,0.8 -1,0.4 -1,0.8 h -1 v 0.8 1.6 l 1,0.4 v 0.8 0.8 1.6 l -1,1.2 v 0.8 l -1,1.6 v 1.2 1.6 1.2 1.6 0.8 l -1,0.8 v 0.4 0.8 l 1,1.6 h 1 v 0.8 m 204,-12.4 -6,6.4 -1,1.6 -1,1.2 -2,1.6 -1,1.6 -1,0.4 -2,1.6 -1,0.8 -2,1.2 -1,0.8 -1,0.8 -1,0.8 -1,1.2 -1,0.8 v 1.6 l -1,0.8 -1,1.2 v 1.6 l -1,0.8 -1,1.2 -1,1.6 -1,1.2 v 0.8 l -2,0.8 -1,1.6 -1,0.4 -1,0.8 -2,1.6 v 1.2 l -2,0.8 -1,1.6 -1,0.8 -2,0.4 -1,1.6 -3,0.8 -1,0.8 -2,0.4 -2,1.6 v 0.8 l -2,0.8 m -1031.6,-48.4 6.4,1.6 17.2,2.8 4.4,0.8 3.6,0.4 4.4,0.8 4,0.8 4.4,0.8 3.6,0.8 4.4,0.4 4.4,0.8 4.4,0.8 4,0.8 8,1.2 4.4,0.8 4.4,0.8 4.4,0.8 3.6,0.8 3.6,0.4 4,0.8 h 3.6 l 3.6,0.8 3.6,0.8 4.4,0.8 3.6,0.4 4.4,0.8 4.4,0.8 4.4,0.8 4,0.8 h 3.6 l 4.4,0.4 4.4,0.8 3.6,0.8 18,2 m -169.2,-20.8 1.6,-5.6 v -0.8 M 1579,644.3 v 0 h 1 3 l 4,-0.8 6,-0.4 4,-0.8 h 5 l 4,-0.8 4,-0.8 3,-0.8 h 5 l 5,-0.4 4,-0.8 4,-0.8 4,-0.8 h 4 l 3,-0.8 5,-0.4 3,-0.8 3,-0.8 4,-0.8 2,-0.8 h 4 l 4,-0.4 3,-0.8 4,-0.8 3,-0.8 4,-0.8 4,-0.4 5,-0.8 5,-1.6 4,-0.8 5,-0.4 5,-0.8 4,-1.6 6,-0.8 4,-1.2 6,-0.8 4,-0.8 4,-0.8 2,-0.4 3,-0.8 4,-0.8 3,-0.8 4,-0.8 4,-0.4 4,-0.8 4,-0.8 3,-1.6 h 3 l 2,-0.4 h 2 v 0 M 442.6,686.3 h 0.8 l 0.4,-1.6 0.8,-1.6 0.8,-1.2 0.8,-2.4 v -2.8 -2.8 -2 -3.2 -2 -2.8 -2.4 -2.8 l 0.8,-2 v -2.8 l 0.4,-2.4 v -2.8 l 0.8,-2 v -3.2 -2 l 1.6,-1.6 1.2,-1.2 h 2.4 2 l 2.4,0.8 2,0.4 1.6,1.6 1.2,1.6 1.6,1.2 1.2,0.8 h 2.4 l 1.2,-0.8 1.6,-2 1.6,-1.6 0.4,-2 0.8,-2.8 0.8,-2.4 v -2.8 l 1.6,-7.2 2,-11.6 m 169.2,20.8 2.8,-18.4 v -1.6 m 709.2,5.2 -1,1.2 -1,0.8 -1,1.6 -1,2 v 1.6 1.2 l 1,2.4 1,0.4 -1,1.6 -1,0.8 -1,0.8 -2,0.4 -1,1.6 -2,0.8 -1,0.8 -1,0.4 -2,0.8 v 1.6 2 1.6 1.2 0.8 l 1,1.6 v 2 l -1,0.8 v 1.6 h -2 -1 l -2,-0.8 -2,-0.8 -2,-0.8 -1,-1.2 -2,-0.8 h -2 l -1,-0.8 h -1 l -2,0.8 -1,1.2 -1,0.8 -1,2.4 -1,1.2 v 1.6 1.2 l 1,0.8 v 0.8 0 m -471.8,-1.6 h -0.8 v 0 h -0.4 -2.4 -2.8 l -5.2,-0.4 h -4.8 l -5.2,-0.8 h -4.8 l -5.2,-0.8 h -5.2 l -4.8,-0.8 -5.2,-0.8 h -4.8 l -4.4,-0.4 H 791 l -4.8,-0.8 -4.4,-0.8 h -3.6 l -4.4,-0.8 h -3.6 l -4.4,-0.8 h -4.4 l -4,-0.4 -5.2,-0.8 H 747 l -4.8,-0.8 -5.2,-0.8 -4.8,-0.8 H 727 l -4.4,-0.4 -4.4,-0.8 -4.8,-0.8 -4.4,-0.8 h -4.4 l -3.6,-0.8 -4.4,-0.4 h -4 l -5.2,-0.8 -5.2,-0.8 -4.8,-0.8 -5.2,-0.8 -4.4,-0.4 -4.8,-0.8 h -4.4 l -4.4,-0.8 -7.2,-1.6 m 0,0 -2.8,21.6 -0.8,6.8 -0.8,5.6 -0.8,5.6 -0.4,6 -0.8,5.6 -1.6,6 -0.8,5.6 -0.4,5.6 -0.8,5.2 -0.8,5.6 -0.8,6 -0.8,4.8 -0.4,6 -0.8,5.6 -0.8,5.2 -0.8,5.6 -0.8,6 -0.4,5.6 -1.6,5.6 -0.8,6 -0.8,5.6 -0.4,6.4 -0.8,6 -0.8,6.4 -0.8,5.6 -1.2,6 -0.8,6.4 -0.8,5.2 -0.8,5.6 -0.8,5.2 -0.4,4.8 -0.8,6 -0.8,5.6 -0.8,5.6 -0.8,6.8 -2,10.8 -0.8,9.2 m 271.6,-235.6 -0.8,17.6 m 626.4,-3.6 2,-0.8 v 0 h 2 2 l 1,-0.8 h 3 1 1 l 5,-0.8 3,-0.8 h 1 1 2 l 2,-0.4 h 2 1 l 2,-0.8 h 1 2 l 1,-0.8 h 2 2 l 1,-0.8 h 2 2 l 2,-0.8 h 2 1 l 2,-0.4 h 2 l 1,-0.8 h 2 l 2,-0.8 h 2 l 1,-0.8 h 3 l 1,-0.8 h 1 1 1 v 0.8 0 0 0 m -7,15.2 v 0 0 -0.8 0 0 l 1,-0.8 v 0 l 1,-0.4 3,-3.2 v -0.4 h 1 v -0.8 0 -0.8 0 -0.8 l 1,-5.6 v -1.6 m -68,9.6 h -1 v 0 l -3,0.4 h -2 l -4,0.8 -3,0.8 h -3 l -3,0.8 h -4 l -3,0.8 h -5 l -3,0.4 h -3 -3 -3 l -5,0.8 h -3 l -4,0.8 h -3 l -4,0.8 h -4 l -4,0.8 h -6 l -4,0.4 h -4 -4 l -4,0.8 h -4 l -4,0.8 -4,0.8 h -4 l -4,0.8 h -4 l -4,0.4 h -4 l -3,0.8 h -5 l -4,0.8 h -4 -3 l -4,0.8 -2,1.2 -1,2.4 -2,2 -4,0.8 -4,0.8 -4,0.8 h -4 -3 l -3,0.4 h -2 -3 -3 l -4,0.8 h -4 l -3,0.8 h -1 -1 v 0 h -1 m -430.4,-20 -30,-2.4 -2.4,-0.8 m 0,0 -1.2,19.6 -0.8,2 m 464.8,1.6 2,-3.6 v -0.8 l 1,-0.8 v 0 l 1,-0.4 v 0.4 0 l 1,0.8 h 1 1 v 0 l 1,-0.8 v 0 -0.4 -0.8 -0.8 -0.8 -0.8 -0.4 -0.8 -0.8 l 1,-0.8 v -0.8 l 1,-0.4 v -0.8 -0.8 -0.8 -0.8 -1.2 -0.8 -0.8 -0.8 -0.4 -0.8 h -1 v -0.8 0 m -251,8 h -1 -1 -2 -3 -4 l -4,-0.8 h -4 -5 -3 -4 -4 -3 -5 -4 -5 -4 l -4,-0.8 h -4 -4 -4 -3.2 -3.6 -4.4 l -3.6,-0.8 h -4.4 -3.6 -3.6 -3.6 l -3.6,-0.4 h -3.6 -4.4 -3.6 l -3.6,-0.8 h -4 -4.4 -4.4 l -4.4,-0.8 h -4.4 -3.6 -3.6 l -4,-0.8 h -3.6 -4.4 -4.4 l -3.6,-0.8 h -4.4 -4.4 l -3.6,-0.4 h -2.8 -2 -1.6 v 0 0 0 m 612.4,68.4 v -1.6 -1.6 -2 l 1,-2.8 1,-2.4 2,-1.2 2,-1.6 1,-1.2 1,-2.4 1,-1.2 1,-2.4 v -1.2 l 2,-1.6 1,-1.6 3,-1.2 1,-1.6 h 2 l 3,-0.8 2,-0.4 2,-0.8 2,-1.6 3,-1.2 1,-2.4 2,-0.8 v -1.2 l 2,-1.6 2,-0.8 2,-1.2 2,-0.8 1,-1.6 1,-2 v -1.6 l 2,-2 1,-1.6 2,-2 3,-0.8 h 1 1 2 l 2,-0.8 2,-1.2 1,-1.6 2,-1.2 2,-0.8 2,-0.8 h 3 l 1,-0.8 1,-1.2 2,-1.6 v -1.6 -1.2 l 1,-0.8 m -435,25.2 v -5.2 -0.4 -0.8 -0.8 0 -0.8 -0.8 0 -0.4 -0.8 -0.8 0 -0.8 -0.8 -0.4 0 -8.8 m 0,0 h -8 -1 -1 -2 -1 -2 -1 -2 l -1,0.8 h -2 -2 -1 -2 -1 -1 -2 -1 -2 -1 -2 -1 -2 -2 -1 -2 -1 -1 -2 -1 -2 -2 -6 -5 m -222.8,12 v 0 0 0.8 l -0.8,1.6 -0.8,2.8 v 5.2 l -0.8,6.4 -0.4,6.4 -0.8,6.4 v 6 l -0.8,6.4 v 5.6 l -0.8,7.2 -0.8,8 -0.4,8.8 -0.8,8.4 -0.8,8 v 5.6 l -0.8,6 -0.8,5.6 v 6.4 l -0.4,6.8 -0.8,6.4 -0.8,7.2 -0.8,8 -0.8,8.4 -0.4,9.6 -0.8,9.2 -0.8,8.8 -1.6,7.6 -2,5.2 -4.4,2.8 -6.4,0.8 h -7.2 l -7.2,-0.8 h -5.6 l -6.8,-0.8 -6.4,-0.4 -6.4,-0.8 -7.2,-0.8 -5.6,-0.8 h -6.8 l -7.2,-0.8 -7.2,-0.4 -7.6,-1.6 -7.2,-0.8 -8,-0.8 h -6.4 l -6,0.8 -4.4,1.6 -0.4,2.8 v 1.6 l 0.4,1.2 v 0 0 m 248,-98.4 h -0.8 v -0.8 l -0.8,-0.8 -1.6,-1.6 -1.2,-2.8 -0.8,-3.6 v -3.6 -4.4 -3.6 -3.6 l 0.8,-4 v -4.4 -4.4 -4.4 l 0.8,-4.4 v -4 -3.6 -4.4 l 0.4,-3.6 v -3.6 -4.4 -5.2 -4 l -0.4,-3.6 -2.4,-3.2 -3.6,-0.4 -4.4,-0.8 h -4.8 l -4.4,-0.8 h -5.2 -4 l -4.4,-0.8 h -5.2 -4.4 l -4.8,-0.8 h -4.4 -4.4 l -4.8,-0.4 h -4.4 l -5.2,-0.8 h -4.4 l -4.8,-0.8 h -4.4 -5.2 l -12,-1.6 m 464.8,1.6 v 0 0 h -1 v 0 h -1 -1 v 0.8 0 0.8 0.4 0.8 2.4 0.4 0.8 0.8 0.8 0.8 0 0.4 0.8 0.8 l -1,0.8 v 0.8 h -1 v 0.4 l -1,0.8 v 0.8 0.8 0.8 0 l -3,6.4 m -169,-15.2 h 6 4 3 4 3 4 4 l 3,-0.8 h 4 3 4 3 4 3 3 l 4,-0.8 h 3 4 4 4 l 4,-0.4 h 4 3 4 3 l 4,-0.8 h 4 3 3 4 l 3,-0.8 h 3 2 4 l 4,-0.8 h 4 4 3 l 4,-0.8 h 4 l 4,0.8 3,0.8 2,2 1,3.2 -1,2.8 v 2 l -1,0.8 v 0 0 m -146,116.8 v -3.2 -2 -2.8 -3.6 -2.8 -3.2 -2.8 -2 -2.8 -3.2 -2.8 l 1,-2.8 v -2.8 -2.8 -3.2 -2.8 -3.6 -2.8 -2.8 -2.8 -3.2 -2.8 -2 -2.8 -3.2 -2 -2 -2.4 l -1,-2 v -2.8 l -1,-2.4 v -2.8 -2.8 l -1,-2.8 v -3.2 l -1,-2.8 v -2.8 l -1,-2.8 -1,-2.8 v -3.2 -2.8 -2.8 l -1,-2 -1,-5.2 m -716.1,98 h 0.8 l 0.7,-0.8 h 2.1 l 1.5,-0.8 2.1,-0.8 1.5,-1.2 0.7,-2.4 v -2 l -0.7,-2 -1.5,-2.4 -1.4,-1.2 -0.7,-1.6 -0.7,-2 v -2.4 l 0.7,-2.8 0.7,-2 0.7,-3.2 1.5,-2 2.1,-1.6 2.2,-2 1.4,-2.8 1.6,-2.8 0.4,-3.2 v -2.8 l 0.8,-3.6 0.8,-2 1.6,-2.4 1.2,-2 2.4,-1.6 2,-1.2 2,-0.8 2.4,-2 1.2,-2.4 0.8,-2 -0.8,-2.4 -1.2,-2.8 -1.6,-2 -0.8,-2.4 -0.4,-2.8 -0.8,-2 -0.8,-2.4 -0.8,-2.8 -0.8,-2.8 -0.4,-2 -0.8,-3.2 v -2 -1.6 0 -0.4 m 847.4,5.6 -4,7.2 -1,0.8 v 0 l -1,0.8 1,0.4 v 0 h 1 1 v 0 h 2 v 0 l 1,-0.4 h 6 1 v 0 h 1 1 v -0.8 h 1 1 5 m 0,0 h 1 v 0.8 l 1,1.2 v 0.8 0.8 l -1,0.8 v 0.4 l -1,0.8 -1,1.6 v 0.8 l -1,1.2 -1,0.8 -2,0.8 v 0.8 l -1,1.2 v 1.6 1.2 l 1,1.6 v 1.6 l -1,0.4 -1,0.8 -1,0.8 -1,0.8 v 0.8 1.2 1.6 0.8 h -1 -1 v 0 0.4 1.6 1.6 l -1,0.4 v 1.6 1.6 l 1,1.2 1,1.6 v 0.8 l -1,1.2 -1,0.8 v 0.8 l -1,1.2 -1,0.8 -1,1.6 -1,0.8 h -1 v 0.4 0 m 417,-1.2 v 0 l -1,-0.8 -1,-0.8 -1,-1.2 -2,-1.6 -4,-1.6 -2,-2 -2,-1.6 -3,-2 -2,-1.6 -3,-2 -2,-1.6 -2,-1.2 -2,-2.4 -2,-1.2 -2,-1.6 -3,-1.2 -2,-1.6 -2,-1.6 -1,-0.4 -2,-1.6 -3,-1.6 -2,-1.2 h -3 -2 -2 -2 l -2,0.8 h -2 l -4,0.4 h -2 l -2,0.8 h -3 l -3,0.8 -3,0.8 h -2 -3 -2 l -2,-0.8 -1,-2 -1,-2.4 -2,-1.2 -2,-1.6 h -1 l -2,-0.8 -1,-0.8 v -0.4 l -1,-0.8 v -0.8 0 m 0,0 h -5 l -1,0.8 h -1 -2 -2 l -2,0.8 h -1 -2 -1 l -2,0.4 h -2 -2 -2 l -1,0.8 h -2 -2 -1 l -2,0.8 h -2 -1 -3 l -1,0.8 h -1 -2 -2 l -1,0.8 h -2 l -1,0.4 -2,0.8 -1,1.6 -1,0.8 -2,0.4 -2,1.6 -2,0.8 -1,0.8 -1,0.4 -2,0.8 h -1 l -3,0.8 -1,1.6 h -1 l -1,0.4 v 0 h -1 v 0 0 m 0,0 v 1.6 0.8 0.8 0.4 0 l -1,0.8 v 0.8 l -1,0.8 -2,2.8 h -1 v 0.8 l -1,0.8 v 0.4 0.8 0.8 0 0.8 0.8 0.4 0.8 h 1 l 1,0.8 v 0 l 5,2.8 1,0.8 v 0 l 1,0.8 h 1 v 0.8 0 l 1,0.4 v 0 m -47,-14.8 4,-0.8 h 1 1 1 l 1,-0.8 h 1 1 v 0 h 2 1 v -0.8 h 1 2 v 0 h 2 l 6,-1.2 h 1 1 1 1 l 1,-0.8 h 1 1 1 l 1,-0.8 7,-0.8 2,-0.8 m -86,11.6 v 0 h 2 1 1 l 1,-0.8 h 1 1 1 1 1 l 1,-0.4 h 1 2 v 0 h 2 l 2,-0.8 v 0 h 2 1 v 0 l 2,-0.8 h 1 v 0 h 2 1 l 1,-0.8 h 1 1 2 v 0 h 2 v -0.8 h 2 v 0 h 2 l 6,-0.4 m -44,4.8 v 0 0.8 0.8 2 l 2,2.8 1,3.6 v 3.2 l 1,2.8 1,2.8 1,2.8 1,2.8 1,3.6 1,3.6 1,4.4 1,4.4 1,3.6 2,3.6 v 3.6 l 1,3.6 1,2.8 1,3.6 1,3.6 1,3.6 1,3.6 1,3.6 1,2.8 1,3.2 1,2.8 v 2.8 l 2,2.8 v 2.8 l 2,3.2 2,2.8 2,2.8 1,3.6 1,2.8 1,2.8 1,3.2 v 2.8 l -2,2 v 2.8 l -1,3.2 v 2.8 l -1,2.8 v 2.8 l 1,2.8 1,2.4 v 2.8 l 2,3.6 v 4.4 3.6 4.4 l 1,2.8 1,3.6 1,2 1,1.6 1,0.8 v 0.4 0 M 1363,738.7 h 1 2 1 l 2,-0.8 h 2 2 l 3,-0.8 h 2 2 2 l 2,-0.4 h 3 2 2 2 l 2,-0.8 h 2 2 1 2 l 3,-0.8 h 2 2 2 l 2,-0.8 h 2 2 l 3,-0.8 h 3 2 1 l 2,-0.4 h 2 2 2 l 2,-0.8 h 2 3 l 2,-0.8 h 2 2 2 l 2,-0.8 h 2 m -84,180.8 v 0 -0.8 -0.8 l -1,-2 -1,-3.6 v -4.4 l -1,-4.8 v -3.6 -4.4 l -1,-3.6 -1,-4.4 v -3.6 l -1,-4.4 v -3.6 -3.6 l 1,-3.6 v -3.6 -3.6 -3.6 -4.4 -3.6 -3.6 -3.6 -4 l 1,-3.6 v -3.6 -3.6 -4.4 -3.6 -3.6 -4.4 -3.6 -4.4 l 1,-4.8 v -4.4 -3.6 -3.6 -2.8 -3.2 -3.6 -2.8 -3.6 -4.4 -4 -4.4 -4.4 l -1,-2.8 -1,-2.4 -1,-1.2 v 0 -0.8 m -74,5.6 14,-0.4 2,-0.8 h 2 1 2 2 1 2 l 2,-0.8 h 1 1 3 1 2 l 2,-0.8 h 1 2 2 1 2 l 2,-0.8 h 1 2 1 2 l 2,-0.4 h 1 2 2 2 1 l 2,-0.8 h 1 2 2 1 1 l 1,-0.8 m 181,2 v 0 0 h 1 1 l 3,0.8 1,1.6 2,1.2 2,3.2 3,2.8 1,2 2,2.8 2,3.2 2,2 3,1.6 2,2 2,1.6 4,2 2,2 2,2.4 3,2 2,1.6 2,1.2 2,2.4 2,2 2,2.4 2,2.8 2,2.8 3,2 3,1.6 3,2 2,2.4 2,2.8 2,2.8 1,2.8 1,3.2 2,2.8 2,2 2,2.4 2,2.8 2,2 2,2.8 1,3.2 2,2.8 2,2 2,1.6 2,0.8 2,0.4 v 0 m -347,-90 v 0 0 0.8 l 1,0.8 v 1.6 l -1,1.2 v 1.6 l -2,1.2 -1,1.6 -1,2 -1,1.6 -1,2 -1,1.6 -1,1.6 v 2 2.8 l -2,2.4 v 2 l -2,1.6 -1,1.2 -2,2.4 -1,2 -2,1.6 -1,2 -1,1.6 v 1.2 1.6 0.8 l -1,1.2 -2,1.6 -1,2 v 2.4 2.8 2 l -1,2.4 -1,1.2 -1,1.6 -1,0.8 v 2 1.6 2 l 1,2.8 1,2.4 1,2.8 1,2 v 2.8 3.2 1.2 l -1,2.4 -1,0.4 v 0.8 0 0 0 m -119,-22.8 v 0 0 l -1,-0.8 -4,-0.8 -3,-0.8 -4,-2 -3,-2.4 -4,-2 -4,-2 h -4 -6 -4 -6 l -4,0.4 -4,1.6 -4,0.8 -4,1.2 -3,0.8 -4,0.8 -3,-0.8 -3,-1.2 -3,-1.6 -3,-0.8 -3,-0.8 -3,-0.4 h -3 l -2,0.4 -2,2.4 h -3 l -3,-0.8 -2,-0.8 h -2 -3 l -2,-1.2 -3,-0.8 -3,-0.8 h -3 -3 -3 l -2,-1.6 -2,-2 -3,-2.8 -3,-1.6 -3,-1.2 -4,0.4 h -3 l -4,-0.4 -4,-1.6 -5.2,-1.6 -5.2,-1.2 -4,-1.6 -3.2,-2 -2,-2.8 -2.8,-2.4 -3.6,-0.8 h -3.6 l -3.6,-0.4 -2.8,-1.6 -2.4,-1.6 -1.2,-0.4 v 0 0 m 205.6,66 v -8 -0.4 -1.6 -0.8 l -1,-0.8 v -1.2 -0.8 -0.8 -5.6 -0.8 -0.8 -0.8 l -1,-0.4 -1,-0.8 h -1 v -0.8 h -1 -1 -1 -1 l -1,0.8 h -1 -1 l -1,0.8 h -1 l -1,-0.8 v 0 l -1,-0.8 -1,-0.8 -1,-1.2 m 119,22.8 v 0 0.8 0.8 1.2 1.6 2 l 1,1.6 1,2 v 1.6 l 1,0.8 v 1.2 1.6 1.6 l 1,0.4 2,1.6 v 1.6 l 1,1.2 1,2.4 1,1.2 1,2.4 v 1.2 l -1,1.6 -1,1.2 -2,1.6 v 0.8 1.2 1.6 0.8 l 1,1.2 v 0.8 l -1,1.6 -1,2 -2,1.6 -1,1.2 -2,1.6 -1,1.6 -1,1.2 v 1.6 l -1,1.2 -1,1.6 -1,1.6 v 2 l -1,1.6 -1,2 -1,1.6 -1,2 v 2 2.4 2 2.4 l -1,1.2 v 1.6 l -1,1.2 v 0 0.8 m 11,-79.2 v 0 0 h -1 -1 l -2,0.8 h -2 -2 -2 -2 -2 -2 -2 l -5,0.8 h -3 -2 -2 -4 -2 -2 -3 l -5,0.8 h -2 -4 -2 -2 -3 -3 -2 -2 -2 -2 l -3,0.4 h -2 -2 -3 -2 -2 -1 -3 -2 -2 -3 -1 -2 -2 -2 v 0.8 m 10,142.8 v 0 -0.8 l -1,-1.6 v -2 -2.4 l 1,-2.8 2,-2 v -2.8 l 1,-3.6 1,-3.6 -1,-3.6 v -3.6 -3.6 -3.2 l 1,-2.8 2,-3.6 2,-3.6 v -3.6 l 1,-2.8 1,-3.6 v -2.8 l -1,-3.6 -1,-2.4 -1,-2 -2,-2 -1,-3.2 -1,-2.8 -1,-2.8 -2,-2.8 v -2.8 l -1,-2.4 -1,-2.8 -1,-2.8 -2,-2.8 -2,-3.2 -1,-3.6 -1,-2.8 -1,-3.6 v -3.6 -3.6 -3.6 -3.6 -2.8 -3.6 -3.6 -3.6 -3.6 -2 -1.6 -0.8 0 m 446,56.4 6,2 h 1 v 0 h 1 v 0 0.8 h 1 v 0 l 7,-0.8 h 2 m -131,5.6 v 0 0.8 l 1,0.8 1,2 1,2.4 1,2 1,2.4 2,0.4 2,0.8 3,-0.8 h 3 4 l 3,-0.4 h 4 3 l 4,-0.8 h 4 2 3 l 4,-0.8 h 3 3 l 2,-0.8 h 3 2 3 2 l 2,-0.8 h 2 4 3 l 3,-0.4 h 3 4 l 3,-0.8 h 4 3 l 4,-0.8 2,0.8 2,1.2 2,2.4 2,1.2 2,0.8 1,-1.2 1,-3.2 v -2.8 -2.8 -2.8 -2.8 l 1,-2.4 1,-0.8 v -0.4 0 m -113,7.6 -9,0.8 -3,0.8 h -2 -2 l -2,0.8 h -2 -3 l -2,0.8 h -3 l -3,0.4 h -3 l -3,0.8 h -2 -3 l -3,0.8 h -2 l -3,0.8 h -3 -2 l -3,0.8 h -3 -2 l -2,0.4 h -2 -3 -2 l -3,0.8 h -3 -3 l -3,0.8 h -2 l -3,0.8 h -2 l -2,0.8 -2,1.2 v 2.4 2 l 1,2 2,1.6 1,1.6 2,0.4 1,0.8 1,0.8 v 0 m -155,-11.6 v 0 0 0.8 0.8 2 1.6 l 1,1.2 v 0.8 l 2,0.8 h 3 l 3,-0.8 h 2 2 4 2 2 l 3,-0.8 h 3 3 3 l 3,-0.4 h 2 2 2 3 l 2,-0.8 h 4 3 3 l 3,-0.8 h 3 2 l 2,0.8 v 1.2 2.4 2.8 l -1,2.8 v 2.8 2.4 l 1,2 1,2.4 2,2 1,2 2,3.2 1,2 1,2 2,1.6 1,1.6 v 0 0.4 m 41,-11.2 -1,-13.2 v -0.8 -0.4 -0.8 -0.8 -0.8 l -1,-0.8 v -0.4 -7.2 -1.6 m 38,10.8 -1,5.2 v 0 0.4 0 0.8 0.8 0 l 1,0.8 v 2 0 0.8 0 0.8 0.8 0 0.4 l -2,4.4" style="display:inline;fill:none;stroke:#000000;stroke-width:2;stroke-linecap:round;stroke-linejoin:round;stroke-miterlimit:4;stroke-dasharray:none;stroke-opacity:1" id="boundaries"></path>
  <text id="text4591" y="1188" x="1762" style="font-style:normal;font-weight:normal;font-size:24px;line-height:1.25;font-family:sans-serif;letter-spacing:0px;word-spacing:0px;fill:#000000;fill-opacity:1;stroke:none" xml:space="preserve"><tspan style="font-size:24px" y="1188" x="1762" id="tspan4589">() Fla-shop.com</tspan></text>
</svg>